<svg width="28" height="6" viewBox="0 0 28 6" fill="none" xmlns="http://www.w3.org/2000/svg">
<path d="M22 3C22 2.40665 22.176 1.82663 22.5056 1.33328C22.8353 0.839933 23.3038 0.455424 23.8519 0.228361C24.4001 0.00129844 25.0034 -0.0581097 25.5853 0.057646C26.1673 0.173402 26.7018 0.459118 27.1213 0.878676C27.5409 1.29823 27.8266 1.83279 27.9424 2.41473C28.0581 2.99668 27.9987 3.59988 27.7716 4.14805C27.5445 4.69623 27.1601 5.16477 26.6667 5.49441C26.1734 5.82406 25.5933 6 25 6C24.2044 6 23.4413 5.68393 22.8787 5.12132C22.3161 4.55871 22 3.79565 22 3ZM11 3C11 2.40665 11.176 1.82663 11.5056 1.33328C11.8353 0.839933 12.3038 0.455424 12.8519 0.228361C13.4001 0.00129844 14.0034 -0.0581097 14.5853 0.057646C15.1673 0.173402 15.7018 0.459118 16.1213 0.878676C16.5409 1.29823 16.8266 1.83279 16.9424 2.41473C17.0581 2.99668 16.9987 3.59988 16.7716 4.14805C16.5445 4.69623 16.1601 5.16477 15.6667 5.49441C15.1734 5.82406 14.5933 6 14 6C13.2044 6 12.4413 5.68393 11.8787 5.12132C11.3161 4.55871 11 3.79565 11 3ZM0 3C0 2.40665 0.175971 1.82663 0.505615 1.33328C0.835259 0.839933 1.30375 0.455424 1.85193 0.228361C2.40011 0.00129844 3.00338 -0.0581097 3.58533 0.057646C4.16727 0.173402 4.70178 0.459118 5.12134 0.878676C5.5409 1.29823 5.82663 1.83279 5.94238 2.41473C6.05814 2.99668 5.99867 3.59988 5.77161 4.14805C5.54454 4.69623 5.1601 5.16477 4.66675 5.49441C4.1734 5.82406 3.59334 6 3 6C2.20435 6 1.44127 5.68393 0.878662 5.12132C0.316053 4.55871 0 3.79565 0 3Z" fill="#AFADFC"/>
</svg>
