<svg width="10" height="10" viewBox="0 0 10 10" fill="none" xmlns="http://www.w3.org/2000/svg">
<path d="M3.5639 9.90611C3.3272 9.90611 3.10018 9.81208 2.9328 9.6447C2.76542 9.47732 2.67139 9.25032 2.67139 9.01361C2.67139 8.77691 2.76542 8.54988 2.9328 8.38251C3.10018 8.21513 3.3272 8.12111 3.5639 8.12111H6.73785L1.16888 2.50511C1.00308 2.33674 0.910156 2.10992 0.910156 1.87361C0.910156 1.63731 1.00308 1.41048 1.16888 1.24211C1.25085 1.15966 1.34828 1.09423 1.45563 1.04958C1.56297 1.00493 1.67811 0.981934 1.79437 0.981934C1.91064 0.981934 2.02577 1.00493 2.13312 1.04958C2.24046 1.09423 2.33789 1.15966 2.41986 1.24211L7.98785 6.85811V3.65811C7.98386 3.53945 8.00379 3.42121 8.04645 3.31041C8.0891 3.19961 8.15362 3.09853 8.23615 3.01318C8.31867 2.92783 8.41755 2.85995 8.52686 2.8136C8.63616 2.76724 8.75365 2.74336 8.87238 2.74336C8.9911 2.74336 9.10859 2.76724 9.2179 2.8136C9.3272 2.85995 9.42608 2.92783 9.50861 3.01318C9.59113 3.09853 9.65565 3.19961 9.6983 3.31041C9.74096 3.42121 9.76089 3.53945 9.7569 3.65811V9.0121C9.7569 9.0201 9.7569 9.02711 9.7569 9.03511C9.7569 9.04211 9.7569 9.0481 9.7569 9.0551V9.10611V9.1221V9.12811V9.14511V9.1631V9.18311C9.73306 9.29941 9.68628 9.40981 9.61932 9.50784C9.55236 9.60588 9.46655 9.68959 9.36688 9.7541L9.35187 9.76411H9.34686L9.33588 9.7711L9.32587 9.7771H9.31989L9.30389 9.7861C9.17716 9.85262 9.03601 9.88697 8.89288 9.88611L3.5639 9.90611Z" fill="#EA3A3D"/>
</svg>
