<svg width="10" height="9" viewBox="0 0 10 9" fill="none" xmlns="http://www.w3.org/2000/svg">
<path d="M1.1694 8.75601C1.0039 8.58769 0.911133 8.36108 0.911133 8.12502C0.911133 7.88895 1.0039 7.66234 1.1694 7.49402L6.7384 1.87802H3.56439C3.32769 1.87802 3.1007 1.78398 2.93332 1.61661C2.76594 1.44923 2.67191 1.22223 2.67191 0.985519C2.67191 0.748814 2.76594 0.521792 2.93332 0.354416C3.1007 0.18704 3.32769 0.0930176 3.56439 0.0930176H8.87338C9.0233 0.0929823 9.17071 0.131554 9.30139 0.205017H9.3074L9.31839 0.211014L9.32941 0.218018H9.33441L9.3494 0.228012C9.44906 0.292525 9.53488 0.376252 9.60184 0.474289C9.6688 0.572326 9.71557 0.682707 9.73941 0.799011V0.819016V0.837021V0.854019V0.860016V0.876022V0.904022C9.73941 0.910022 9.73941 0.916012 9.73941 0.922012C9.73941 0.929012 9.73941 0.935017 9.73941 0.942017C9.73941 0.94935 9.73941 0.957012 9.73941 0.965012V6.31902C9.7434 6.43767 9.72347 6.55592 9.68082 6.66672C9.63816 6.77751 9.57365 6.87859 9.49112 6.96394C9.40859 7.04929 9.30974 7.11716 9.20044 7.16351C9.09114 7.20987 8.97361 7.23376 8.85489 7.23376C8.73617 7.23376 8.61867 7.20987 8.50937 7.16351C8.40007 7.11716 8.30122 7.04929 8.21869 6.96394C8.13616 6.87859 8.07165 6.77751 8.02899 6.66672C7.98634 6.55592 7.96641 6.43767 7.9704 6.31902V3.11902L2.4024 8.73502C2.32057 8.81771 2.22315 8.88336 2.11578 8.92816C2.00842 8.97296 1.89322 8.99602 1.77689 8.99602C1.66055 8.99602 1.54538 8.97296 1.43802 8.92816C1.33065 8.88336 1.23323 8.81771 1.1514 8.73502L1.1694 8.75601Z" fill="#1AD598"/>
</svg>
