<svg width="24" height="25" viewBox="0 0 24 25" fill="none" xmlns="http://www.w3.org/2000/svg">
<path d="M16.2644 22.9C16.2644 22.5242 16.3758 22.1569 16.5846 21.8444C16.7934 21.532 17.0901 21.2884 17.4373 21.1446C17.7845 21.0008 18.1665 20.9632 18.5351 21.0365C18.9036 21.1098 19.2422 21.2908 19.5079 21.5565C19.7736 21.8222 19.9546 22.1608 20.0279 22.5293C20.1012 22.8979 20.0636 23.2799 19.9198 23.6271C19.776 23.9743 19.5324 24.271 19.22 24.4798C18.9075 24.6886 18.5402 24.8 18.1644 24.8C17.6605 24.8 17.1772 24.5998 16.8209 24.2435C16.4646 23.8872 16.2644 23.4039 16.2644 22.9ZM8.7064 22.9C8.7064 22.5242 8.81785 22.1569 9.02663 21.8444C9.2354 21.532 9.53214 21.2884 9.87932 21.1446C10.2265 21.0008 10.6085 20.9632 10.9771 21.0365C11.3457 21.1098 11.6842 21.2908 11.9499 21.5565C12.2156 21.8222 12.3966 22.1608 12.4699 22.5293C12.5432 22.8979 12.5056 23.2799 12.3618 23.6271C12.218 23.9743 11.9745 24.271 11.662 24.4798C11.3495 24.6886 10.9822 24.8 10.6064 24.8C10.3568 24.8001 10.1096 24.7511 9.87901 24.6557C9.64838 24.5602 9.43879 24.4203 9.26225 24.2439C9.08571 24.0674 8.94569 23.8579 8.85014 23.6273C8.7546 23.3968 8.7054 23.1496 8.7054 22.9H8.7064ZM18.8624 19.731H10.0004C9.15741 19.7091 8.33568 19.4616 7.62089 19.0141C6.90611 18.5667 6.32442 17.9357 5.93642 17.187C5.34536 16.1195 4.93385 14.962 4.7184 13.761L2.67042 3.093L0.930404 2.479C0.649809 2.39142 0.408245 2.20929 0.246841 1.96362C0.0854369 1.71796 0.0141698 1.42394 0.0451808 1.13164C0.0761917 0.839333 0.207558 0.566807 0.416915 0.360474C0.626273 0.154141 0.90068 0.0267547 1.1934 0L3.9164 0.839005C4.11342 0.897776 4.29239 1.00543 4.43663 1.15195C4.58087 1.29846 4.68573 1.47908 4.74141 1.677L5.1934 3.056L21.9934 3.043C23.3204 3.043 24.0784 3.326 23.9414 4.756L21.3824 13.456C21.1174 14.556 20.5194 15.51 19.4454 15.51H7.74541C7.91868 15.9815 8.22289 16.3938 8.62233 16.6985C9.02176 17.0032 9.49984 17.1876 10.0004 17.23H18.8614C19.1811 17.2443 19.4832 17.3805 19.7056 17.6106C19.9281 17.8407 20.054 18.1472 20.0574 18.4672C20.0609 18.7872 19.9416 19.0964 19.7242 19.3313C19.5068 19.5661 19.2077 19.7088 18.8884 19.73L18.8624 19.731ZM17.6624 7.369L16.4534 11.875C16.4248 11.9679 16.4197 12.0665 16.4386 12.1619C16.4576 12.2572 16.5 12.3464 16.562 12.4213C16.624 12.4962 16.7037 12.5545 16.7938 12.5909C16.884 12.6274 16.9818 12.6408 17.0784 12.63H17.4294C17.6583 12.627 17.8806 12.5526 18.0652 12.4173C18.2498 12.2819 18.3876 12.0924 18.4594 11.875L19.6654 7.369C19.6941 7.27613 19.6992 7.17757 19.6803 7.08223C19.6613 6.98689 19.6189 6.89776 19.5569 6.82292C19.4949 6.74808 19.4151 6.68988 19.325 6.65358C19.2348 6.61728 19.137 6.60402 19.0404 6.61501H18.6894C18.4617 6.61885 18.2409 6.69325 18.0573 6.82794C17.8737 6.96264 17.7364 7.15098 17.6644 7.367L17.6624 7.369ZM12.2924 7.42799L11.8344 11.816C11.8212 11.9198 11.8306 12.0253 11.8622 12.1251C11.8937 12.2249 11.9465 12.3167 12.017 12.3941C12.0874 12.4715 12.1739 12.5327 12.2703 12.5734C12.3667 12.6141 12.4708 12.6335 12.5754 12.63H12.9254C13.1502 12.6274 13.3665 12.5436 13.5343 12.394C13.7022 12.2443 13.8102 12.039 13.8384 11.816L14.2984 7.42799C14.3113 7.32414 14.3016 7.21874 14.2699 7.119C14.2381 7.01927 14.1852 6.92758 14.1147 6.85023C14.0442 6.77289 13.9578 6.71174 13.8615 6.67096C13.7651 6.63018 13.661 6.61075 13.5564 6.614H13.2054C12.9811 6.61722 12.7656 6.7012 12.5983 6.85054C12.4309 6.99988 12.323 7.20455 12.2944 7.427L12.2924 7.42799ZM7.23241 7.42799L7.6924 11.816C7.72064 12.039 7.82866 12.2443 7.99647 12.394C8.16429 12.5436 8.3806 12.6274 8.60542 12.63H8.9564C9.06102 12.6335 9.16513 12.6141 9.26155 12.5734C9.35797 12.5327 9.44439 12.4715 9.51485 12.3941C9.58531 12.3167 9.63814 12.2249 9.66966 12.1251C9.70118 12.0253 9.71063 11.9198 9.6974 11.816L9.23741 7.42799C9.20917 7.20494 9.10115 6.99964 8.93333 6.85002C8.76551 6.7004 8.54924 6.61656 8.32442 6.614H7.9734C7.8691 6.61104 7.7654 6.63066 7.66939 6.67152C7.57337 6.71238 7.48731 6.77351 7.41713 6.85072C7.34694 6.92794 7.29428 7.01942 7.26274 7.11888C7.2312 7.21835 7.22155 7.32345 7.23442 7.427L7.23241 7.42799Z" fill="#0090FF"/>
</svg>
