<svg width="28" height="18" viewBox="0 0 28 18" fill="none" xmlns="http://www.w3.org/2000/svg">
<path d="M21.8397 12.6251H24.9626C25.146 12.6109 25.3276 12.6695 25.4681 12.7881C25.6087 12.9068 25.6968 13.076 25.7136 13.2591V13.5231C25.6968 13.7062 25.6087 13.8754 25.4681 13.9941C25.3276 14.1127 25.146 14.1713 24.9626 14.1571H21.8397C21.6563 14.1713 21.4747 14.1127 21.3342 13.9941C21.1936 13.8754 21.1054 13.7062 21.0886 13.5231V13.2591C21.1054 13.076 21.1936 12.9068 21.3342 12.7881C21.4747 12.6695 21.6563 12.6109 21.8397 12.6251ZM15.5916 12.6251H18.7147C18.898 12.6109 19.0796 12.6695 19.2201 12.7881C19.3606 12.9068 19.4488 13.076 19.4656 13.2591V13.5231C19.4488 13.7062 19.3606 13.8754 19.2201 13.9941C19.0796 14.1127 18.898 14.1713 18.7147 14.1571H15.5916C15.4082 14.1713 15.2267 14.1127 15.0862 13.9941C14.9456 13.8754 14.8574 13.7062 14.8406 13.5231V13.2591C14.8574 13.076 14.9456 12.9068 15.0862 12.7881C15.2267 12.6695 15.4082 12.6109 15.5916 12.6251ZM9.34362 12.6251H12.4666C12.6496 12.6115 12.8307 12.6703 12.9708 12.7889C13.1109 12.9075 13.1988 13.0763 13.2156 13.2591V13.5231C13.1988 13.7059 13.1109 13.8747 12.9708 13.9933C12.8307 14.1119 12.6496 14.1707 12.4666 14.1571H9.34362C9.16025 14.1713 8.97866 14.1127 8.83813 13.9941C8.69759 13.8754 8.60944 13.7062 8.59264 13.5231V13.2591C8.60944 13.076 8.69759 12.9068 8.83813 12.7881C8.97866 12.6695 9.16025 12.6109 9.34362 12.6251ZM3.09563 12.6251H6.21862C6.40199 12.6109 6.58358 12.6695 6.72411 12.7881C6.86464 12.9068 6.9528 13.076 6.96959 13.2591V13.5231C6.9528 13.7062 6.86464 13.8754 6.72411 13.9941C6.58358 14.1127 6.40199 14.1713 6.21862 14.1571H3.0996C2.91623 14.1713 2.7347 14.1127 2.59417 13.9941C2.45364 13.8754 2.36542 13.7062 2.34862 13.5231V13.2591C2.36542 13.076 2.45364 12.9068 2.59417 12.7881C2.7347 12.6695 2.91623 12.6109 3.0996 12.6251H3.09563ZM3.92565 2.8311H8.03264C8.25092 2.85267 8.45201 2.95907 8.59264 3.12738C8.73328 3.29569 8.80217 3.51248 8.7846 3.73111V5.5081C8.80217 5.72673 8.73328 5.94353 8.59264 6.11185C8.45201 6.28016 8.25092 6.38654 8.03264 6.40811H3.92565C3.70728 6.38679 3.50603 6.28046 3.36535 6.11209C3.22466 5.94372 3.1558 5.72679 3.17364 5.5081V3.73111C3.1558 3.51242 3.22466 3.29549 3.36535 3.12712C3.50603 2.95875 3.70728 2.85242 3.92565 2.8311ZM2.66063 0.1521C2.00168 0.227667 1.39873 0.558889 0.981497 1.07449C0.564263 1.5901 0.366073 2.24888 0.429617 2.9091V15.0801C0.366086 15.7402 0.564302 16.3989 0.981558 16.9143C1.39881 17.4298 2.00176 17.7608 2.66063 17.8361H25.3996C26.0584 17.7605 26.6612 17.4295 27.0784 16.9141C27.4956 16.3987 27.6939 15.7402 27.6306 15.0801V2.9091C27.6942 2.24888 27.496 1.5901 27.0788 1.07449C26.6616 0.558889 26.0586 0.227667 25.3996 0.1521H2.66063Z" fill="#DB5AEE"/>
</svg>
