<svg width="50" height="28" viewBox="0 0 50 28" fill="none" xmlns="http://www.w3.org/2000/svg">
<path d="M7.84302 0H42.157C46.489 0 50 3.134 50 7V21C50 24.866 46.489 28 42.157 28H7.84302C3.51102 28 0 24.866 0 21V7C0 3.134 3.51102 0 7.84302 0Z" fill="#1AD598" fill-opacity="0.4"/>
<path d="M11.9678 13.1035V17H10.6553V7.04688H14.3262C15.4154 7.04688 16.2676 7.32487 16.8828 7.88086C17.5026 8.43685 17.8125 9.17285 17.8125 10.0889C17.8125 11.055 17.5094 11.8001 16.9033 12.3242C16.3018 12.8438 15.4382 13.1035 14.3125 13.1035H11.9678ZM11.9678 12.0303H14.3262C15.028 12.0303 15.5658 11.8662 15.9395 11.5381C16.3132 11.2054 16.5 10.7269 16.5 10.1025C16.5 9.51009 16.3132 9.03613 15.9395 8.68066C15.5658 8.3252 15.0531 8.14062 14.4014 8.12695H11.9678V12.0303ZM24.04 14.4023H19.8701L18.9336 17H17.5801L21.3809 7.04688H22.5293L26.3369 17H24.9902L24.04 14.4023ZM20.2666 13.3223H23.6504L21.9551 8.66699L20.2666 13.3223ZM29.085 17H27.7725V7.04688H29.085V17ZM31.4912 17V7.04688H34.3008C35.1667 7.04688 35.9323 7.23828 36.5977 7.62109C37.263 8.00391 37.7757 8.5485 38.1357 9.25488C38.5003 9.96126 38.6849 10.7725 38.6895 11.6885V12.3242C38.6895 13.263 38.5072 14.0856 38.1426 14.792C37.7826 15.4984 37.2653 16.0407 36.5908 16.4189C35.9209 16.7972 35.1393 16.9909 34.2461 17H31.4912ZM32.8037 8.12695V15.9268H34.1846C35.1963 15.9268 35.9824 15.6123 36.543 14.9834C37.1081 14.3545 37.3906 13.459 37.3906 12.2969V11.7158C37.3906 10.5856 37.124 9.70833 36.5908 9.08398C36.0622 8.45508 35.3102 8.13607 34.335 8.12695H32.8037Z" fill="#1AD598"/>
</svg>
