<svg width="28" height="20" viewBox="0 0 28 20" fill="none" xmlns="http://www.w3.org/2000/svg">
<path d="M3.25159 19.519C2.88145 19.5204 2.5147 19.4487 2.17237 19.3079C1.83003 19.1672 1.5189 18.9601 1.25684 18.6987C0.99478 18.4373 0.787006 18.1267 0.645389 17.7847C0.503772 17.4427 0.431114 17.0761 0.431644 16.706V14.656C0.431644 13.767 0.48569 13.806 1.17969 13.621C1.93589 13.3639 2.59254 12.8765 3.05762 12.2271C3.5227 11.5778 3.77283 10.7992 3.77283 10.0005C3.77283 9.20176 3.5227 8.42311 3.05762 7.77378C2.59254 7.12445 1.93589 6.63704 1.17969 6.37997C0.48569 6.19497 0.431644 6.23595 0.431644 5.34595V3.29496C0.431114 2.92481 0.503772 2.55821 0.645389 2.21622C0.787006 1.87424 0.99478 1.56361 1.25684 1.30221C1.5189 1.0408 1.83003 0.833766 2.17237 0.692999C2.5147 0.552233 2.88145 0.480505 3.25159 0.481955H24.8097C25.1798 0.48077 25.5463 0.552673 25.8886 0.693534C26.2308 0.834394 26.5418 1.04145 26.8038 1.3028C27.0658 1.56416 27.2737 1.87468 27.4154 2.21654C27.5571 2.55841 27.6299 2.92489 27.6296 3.29496V5.34595C27.6296 6.23595 27.5736 6.19497 26.8816 6.37997C26.1254 6.63704 25.4687 7.12445 25.0037 7.77378C24.5386 8.42311 24.2885 9.20176 24.2885 10.0005C24.2885 10.7992 24.5386 11.5778 25.0037 12.2271C25.4687 12.8765 26.1254 13.3639 26.8816 13.621C27.5736 13.806 27.6296 13.767 27.6296 14.656V16.706C27.6299 17.076 27.5571 17.4425 27.4154 17.7844C27.2737 18.1262 27.0658 18.4368 26.8038 18.6981C26.5418 18.9595 26.2308 19.1665 25.8886 19.3074C25.5463 19.4482 25.1798 19.5201 24.8097 19.519H3.25159ZM15.5906 11.556C15.2937 11.8537 15.0918 12.2327 15.0101 12.6451C14.9285 13.0575 14.9709 13.4849 15.1321 13.8733C15.2932 14.2616 15.5659 14.5934 15.9155 14.8269C16.2652 15.0604 16.6762 15.185 17.0967 15.185C17.5171 15.185 17.9281 15.0604 18.2777 14.8269C18.6274 14.5934 18.9 14.2616 19.0612 13.8733C19.2223 13.4849 19.2648 13.0575 19.1832 12.6451C19.1016 12.2327 18.8996 11.8537 18.6027 11.556C18.2099 11.1649 17.6808 10.9413 17.1266 10.932H17.1027C16.5359 10.9315 15.9921 11.156 15.5906 11.556ZM16.4966 5.97095L9.99658 12.462C9.91701 12.5403 9.85381 12.6337 9.81067 12.7367C9.76753 12.8397 9.74536 12.9503 9.74536 13.062C9.74536 13.1736 9.76753 13.2842 9.81067 13.3872C9.85381 13.4902 9.91701 13.5836 9.99658 13.662L10.3677 14.029C10.4462 14.1082 10.5396 14.1711 10.6426 14.214C10.7456 14.2569 10.8561 14.279 10.9677 14.279C11.0792 14.279 11.1896 14.2569 11.2926 14.214C11.3956 14.1711 11.4891 14.1082 11.5676 14.029L18.0676 7.53995C18.1467 7.46133 18.2095 7.36785 18.2523 7.26488C18.2952 7.16191 18.3173 7.05149 18.3173 6.93996C18.3173 6.82844 18.2952 6.71801 18.2523 6.61504C18.2095 6.51207 18.1467 6.41858 18.0676 6.33996L17.6976 5.97297C17.5383 5.8142 17.3226 5.72504 17.0977 5.72504C16.8727 5.72504 16.657 5.8142 16.4977 5.97297L16.4966 5.97095ZM9.45667 5.43496C9.10765 5.78276 8.88975 6.24066 8.84009 6.73087C8.79043 7.22109 8.91203 7.71338 9.18421 8.12411C9.45638 8.53483 9.86233 8.83867 10.3331 8.98398C10.8039 9.1293 11.3105 9.10713 11.7668 8.92126C12.2232 8.73538 12.6012 8.39726 12.8364 7.96433C13.0717 7.53141 13.1498 7.03038 13.0575 6.54638C12.9652 6.06237 12.7083 5.62525 12.3302 5.30926C11.9521 4.99326 11.4763 4.8179 10.9836 4.81296H10.9576C10.3948 4.81486 9.85543 5.03873 9.45667 5.43597V5.43496ZM16.5497 13.602C16.4229 13.4758 16.3436 13.3096 16.3257 13.1316C16.3077 12.9536 16.3521 12.7749 16.4512 12.6259C16.5502 12.477 16.6978 12.367 16.8689 12.3147C17.04 12.2624 17.2239 12.2711 17.3893 12.3393C17.5547 12.4074 17.6914 12.5308 17.776 12.6885C17.8606 12.8461 17.8878 13.0282 17.8532 13.2037C17.8185 13.3792 17.7241 13.5372 17.5859 13.6509C17.4478 13.7645 17.2745 13.8268 17.0956 13.827C16.9941 13.827 16.8936 13.8069 16.7999 13.768C16.7062 13.729 16.6212 13.6719 16.5497 13.6V13.602ZM10.4176 7.48296C10.3096 7.3748 10.2363 7.23694 10.2069 7.08695C10.1775 6.93696 10.1935 6.78162 10.2527 6.64071C10.3119 6.49979 10.4116 6.37969 10.5393 6.29568C10.667 6.21167 10.8168 6.16756 10.9696 6.16897C11.1717 6.17191 11.3649 6.25289 11.5087 6.39496C11.6529 6.53964 11.7338 6.7357 11.7335 6.94002C11.7332 7.14434 11.6518 7.34018 11.5071 7.48446C11.3624 7.62874 11.1664 7.70964 10.962 7.70936C10.7577 7.70908 10.5619 7.62764 10.4176 7.48296Z" fill="#F9B959"/>
</svg>
