<svg width="72" height="28" viewBox="0 0 72 28" fill="none" xmlns="http://www.w3.org/2000/svg">
<path d="M7.84302 0H64.157C68.489 0 72 3.134 72 7V21C72 24.866 68.489 28 64.157 28H7.84302C3.51102 28 0 24.866 0 21V7C0 3.134 3.51102 0 7.84302 0Z" fill="#EA3A3D" fill-opacity="0.4"/>
<path d="M17.6621 7.04688V13.8145C17.6576 14.7533 17.3613 15.5212 16.7734 16.1182C16.1901 16.7152 15.3971 17.0501 14.3945 17.123L14.0459 17.1367C12.9567 17.1367 12.0885 16.8428 11.4414 16.2549C10.7943 15.667 10.4661 14.8581 10.457 13.8281V7.04688H11.7559V13.7871C11.7559 14.5072 11.9541 15.0677 12.3506 15.4688C12.7471 15.8652 13.3122 16.0635 14.0459 16.0635C14.7887 16.0635 15.3561 15.8652 15.748 15.4688C16.1445 15.0723 16.3428 14.514 16.3428 13.7939V7.04688H17.6621ZM27.3828 17H26.0635L21.0527 9.33008V17H19.7334V7.04688H21.0527L26.0771 14.751V7.04688H27.3828V17ZM31.0264 13.1035V17H29.7139V7.04688H33.3848C34.474 7.04688 35.3262 7.32487 35.9414 7.88086C36.5612 8.43685 36.8711 9.17285 36.8711 10.0889C36.8711 11.055 36.568 11.8001 35.9619 12.3242C35.3604 12.8438 34.4967 13.1035 33.3711 13.1035H31.0264ZM31.0264 12.0303H33.3848C34.0866 12.0303 34.6243 11.8662 34.998 11.5381C35.3717 11.2054 35.5586 10.7269 35.5586 10.1025C35.5586 9.51009 35.3717 9.03613 34.998 8.68066C34.6243 8.3252 34.1117 8.14062 33.46 8.12695H31.0264V12.0303ZM43.0986 14.4023H38.9287L37.9922 17H36.6387L40.4395 7.04688H41.5879L45.3955 17H44.0488L43.0986 14.4023ZM39.3252 13.3223H42.709L41.0137 8.66699L39.3252 13.3223ZM48.1436 17H46.8311V7.04688H48.1436V17ZM50.5498 17V7.04688H53.3594C54.2253 7.04688 54.9909 7.23828 55.6562 7.62109C56.3216 8.00391 56.8343 8.5485 57.1943 9.25488C57.5589 9.96126 57.7435 10.7725 57.748 11.6885V12.3242C57.748 13.263 57.5658 14.0856 57.2012 14.792C56.8411 15.4984 56.3239 16.0407 55.6494 16.4189C54.9795 16.7972 54.1979 16.9909 53.3047 17H50.5498ZM51.8623 8.12695V15.9268H53.2432C54.2549 15.9268 55.041 15.6123 55.6016 14.9834C56.1667 14.3545 56.4492 13.459 56.4492 12.2969V11.7158C56.4492 10.5856 56.1826 9.70833 55.6494 9.08398C55.1208 8.45508 54.3688 8.13607 53.3936 8.12695H51.8623Z" fill="#EA3A3D"/>
</svg>
