<svg width="26" height="26" viewBox="0 0 26 26" fill="none" xmlns="http://www.w3.org/2000/svg">
<path d="M13 0C15.5712 0 18.0846 0.762437 20.2224 2.1909C22.3603 3.61935 24.0265 5.64968 25.0104 8.02512C25.9944 10.4006 26.2518 13.0144 25.7502 15.5362C25.2486 18.0579 24.0105 20.3743 22.1924 22.1924C20.3743 24.0105 18.0579 25.2486 15.5362 25.7502C13.0144 26.2518 10.4006 25.9944 8.02512 25.0104C5.64968 24.0265 3.61935 22.3603 2.1909 20.2224C0.762437 18.0846 0 15.5712 0 13C0 9.55219 1.36964 6.24558 3.80761 3.80761C6.24558 1.36964 9.55219 0 13 0" fill="#F0F0F0"/>
<path d="M12.4346 12.9999H25.9996C26.0001 11.8548 25.8494 10.7146 25.5516 9.60889H12.4346V12.9999Z" fill="#D80027"/>
<path d="M12.4346 6.21693H24.0916C23.2965 4.92067 22.2812 3.77312 21.0916 2.82593H12.4346V6.21693Z" fill="#D80027"/>
<path d="M13.0002 26.0001C15.9402 26.0044 18.7941 25.0077 21.0922 23.1741H4.9082C7.20632 25.0077 10.0602 26.0044 13.0002 26.0001Z" fill="#D80027"/>
<path d="M1.90824 19.7831H24.0922C24.7387 18.7285 25.2304 17.5865 25.5522 16.3921H0.448242C0.770107 17.5865 1.26179 18.7285 1.90824 19.7831Z" fill="#D80027"/>
<path d="M6.022 2.03002H7.207L6.107 2.83002L6.528 4.13002L5.428 3.33002L4.328 4.13002L4.692 3.01102C3.72012 3.82076 2.87093 4.76729 2.171 5.82102H2.551L1.851 6.33102C1.74167 6.51302 1.63667 6.69802 1.536 6.88602L1.871 7.91702L1.246 7.46302C1.082 7.78968 0.937333 8.12468 0.812 8.46802L1.181 9.60002H2.543L1.443 10.4L1.864 11.7L0.764 10.9L0.104 11.38C0.0359402 11.9174 0.00120715 12.4584 0 13H13V1.61421e-05C10.5278 -0.00388826 8.10629 0.700572 6.022 2.03002ZM6.522 11.7L5.422 10.9L4.322 11.7L4.743 10.4L3.643 9.60002H5L5.421 8.30002L5.842 9.60002H7.207L6.107 10.4L6.522 11.7ZM6.1 6.61802L6.521 7.91802L5.421 7.11802L4.321 7.91802L4.742 6.61802L3.642 5.81802H5L5.421 4.51802L5.842 5.81802H7.207L6.1 6.61802ZM11.189 11.7L10.089 10.9L8.989 11.7L9.41 10.4L8.3 9.60002H9.666L10.087 8.30002L10.508 9.60002H11.87L10.77 10.4L11.189 11.7ZM10.768 6.61802L11.189 7.91802L10.089 7.11802L8.989 7.91802L9.41 6.61802L8.31 5.81802H9.666L10.087 4.51802L10.508 5.81802H11.87L10.768 6.61802ZM10.768 2.83102L11.189 4.13102L10.089 3.33102L8.989 4.13102L9.41 2.83102L8.31 2.03102H9.666L10.087 0.731016L10.508 2.03102H11.87L10.768 2.83102Z" fill="#0052B4"/>
</svg>
