<svg width="232" height="41" viewBox="0 0 232 41" fill="none" xmlns="http://www.w3.org/2000/svg">
<path d="M69.8616 10.6416C70.5865 10.616 71.3016 10.8106 71.9108 11.199C72.1932 11.4134 72.4168 11.6946 72.5606 12.0166C72.7039 12.3386 72.7632 12.6912 72.7324 13.0417C72.6894 13.7035 72.5718 14.3586 72.3823 14.9949C72.1442 15.8932 71.8315 16.9344 71.4487 18.1091C71.0659 19.2838 70.6084 20.5599 70.1043 21.9235C69.6001 23.2871 69.0867 24.623 68.5499 25.9405C68.013 27.2581 67.4809 28.5065 66.9487 29.6812C66.4166 30.8559 65.9311 31.851 65.4876 32.6572C65.0689 32.9533 64.5918 33.159 64.0872 33.2607C63.409 33.4229 62.7125 33.5018 62.0146 33.4956C61.222 33.5148 60.4317 33.3963 59.6806 33.1455C59.0822 32.9591 58.5804 32.5513 58.2802 32.0076C57.9969 31.4825 57.6515 30.7546 57.2439 29.824C56.8364 28.8935 56.3958 27.84 55.9229 26.6638C55.45 25.4845 54.9627 24.236 54.4618 22.9185C53.9623 21.6056 53.4815 20.2927 53.0287 18.9936C52.5759 17.6945 52.1465 16.4368 51.7544 15.2299C51.3623 14.0229 51.0402 12.9265 50.7881 11.9729C51.1601 11.5628 51.619 11.2388 52.1325 11.0239C52.6996 10.7634 53.3177 10.6281 53.9437 10.6277C54.6546 10.5966 55.3567 10.792 55.9462 11.1851C56.5577 11.7035 56.9793 12.4061 57.1459 13.1845L59.5033 20.8501C59.69 21.472 59.9047 22.1308 60.1381 22.8264C60.3715 23.522 60.6049 24.2084 60.8243 24.8718C61.0437 25.5352 61.2538 26.1755 61.4591 26.779C61.6645 27.3825 61.8279 27.8846 61.954 28.29H62.1407C63.0495 25.5628 63.9439 22.7512 64.8248 19.855C65.7056 16.9589 66.474 14.1058 67.1308 11.2957C67.5341 11.0691 67.9701 10.9045 68.4238 10.8074C68.8957 10.7007 69.3775 10.6451 69.8616 10.6416Z" fill="#F79150"/>
<path d="M85.3078 10.4526C88.3854 10.4526 90.8426 11.1037 92.6785 12.4059C94.5145 13.7081 95.4327 15.7227 95.4327 18.4499V29.1836C95.4695 29.8216 95.2688 30.4508 94.8678 30.9526C94.4659 31.4101 93.9935 31.8019 93.4674 32.1135C92.4251 32.7023 91.2959 33.1266 90.1205 33.3712C88.6043 33.6964 87.0555 33.8509 85.5038 33.8319C82.3669 33.8319 79.8943 33.2361 78.0864 32.0444C76.2784 30.8528 75.3756 29.0639 75.3789 26.6776C75.3789 24.6015 76.0464 23.0121 77.3815 21.9096C78.7165 20.8071 80.6552 20.1345 83.1978 19.8919L89.649 19.2377V18.4039C89.6854 17.896 89.5851 17.3876 89.3582 16.9305C89.1309 16.4733 88.785 16.0836 88.356 15.8011C87.4971 15.2544 86.2773 14.9811 84.6963 14.9811C83.4877 14.9851 82.2848 15.1399 81.1159 15.4417C80.046 15.704 79.0046 16.0697 78.007 16.5335C77.6462 16.2679 77.3497 15.9265 77.1388 15.5339C76.9002 15.1118 76.7779 14.6352 76.784 14.1518C76.7644 13.6109 76.9287 13.0789 77.2508 12.6408C77.6303 12.1798 78.1153 11.8136 78.6652 11.5721C79.6651 11.1744 80.7084 10.893 81.7741 10.7336C82.9425 10.5473 84.124 10.4533 85.3078 10.4526ZM85.4945 29.3725C86.3343 29.3792 87.1717 29.2926 87.9919 29.1145C88.5768 29.012 89.1365 28.7994 89.6397 28.488V23.3285L85.0744 23.7477C84.0651 23.7982 83.0811 24.0772 82.1989 24.5631C81.8707 24.7748 81.606 25.0693 81.4319 25.4159C81.2583 25.7626 81.1812 26.1489 81.2093 26.5348C81.1906 26.9387 81.2732 27.341 81.4501 27.7059C81.6266 28.0708 81.8917 28.3869 82.2222 28.6262C82.9005 29.1238 83.9914 29.3725 85.4945 29.3725Z" fill="#F79150"/>
<path d="M101.604 27.7464C102.421 26.756 103.243 25.7793 104.079 24.8165C104.914 23.8537 105.75 22.8817 106.595 21.8866C105.406 20.4954 104.268 19.141 103.182 17.8235C102.096 16.506 100.99 15.1501 99.8633 13.7557C100.006 12.943 100.391 12.1907 100.97 11.5952C101.236 11.3279 101.556 11.1176 101.908 10.9773C102.261 10.8371 102.639 10.7698 103.019 10.7798C103.678 10.7395 104.331 10.9377 104.853 11.3372C105.391 11.8161 105.88 12.3452 106.314 12.9173C106.937 13.7895 107.589 14.6878 108.27 15.6123C108.952 16.5367 109.651 17.4672 110.366 18.4039C111.369 17.1018 112.333 15.8457 113.26 14.6356C114.188 13.4256 115.137 12.1557 116.108 10.8258C116.233 10.8006 116.359 10.7853 116.486 10.7798H116.817C117.719 10.7359 118.611 10.9798 119.362 11.4754C119.656 11.6795 119.895 11.9517 120.058 12.2682C120.22 12.5847 120.302 12.9356 120.295 13.2905C120.305 13.8423 120.169 14.3873 119.898 14.8706C119.477 15.5268 118.996 16.1435 118.461 16.7133L113.891 21.9649C115.02 23.4483 116.151 24.8964 117.284 26.3091C118.417 27.7219 119.548 29.1668 120.678 30.644C120.596 31.4541 120.229 32.2103 119.642 32.7816C119.366 33.042 119.041 33.2459 118.686 33.3819C118.33 33.5179 117.95 33.5832 117.569 33.5739C116.796 33.5784 116.047 33.316 115.45 32.8323C114.848 32.289 114.311 31.6801 113.849 31.0172C113.226 30.1511 112.584 29.2682 111.921 28.3683C111.258 27.4685 110.614 26.5702 109.988 25.6734C109.011 26.9725 108.052 28.2731 107.113 29.5753C106.173 30.8775 105.249 32.1735 104.34 33.4634H103.495C102.546 33.5264 101.604 33.2626 100.83 32.7171C100.541 32.5085 100.306 32.2361 100.144 31.9216C99.9819 31.6071 99.8969 31.2595 99.896 30.9066C99.8913 30.4211 100.02 29.9433 100.269 29.5246C100.675 28.9041 101.121 28.3101 101.604 27.7464Z" fill="#F79150"/>
<path d="M136.223 15.1469C135.33 15.1371 134.443 15.2933 133.608 15.6076C132.827 15.9051 132.12 16.3655 131.536 16.9573C130.924 17.5845 130.448 18.3273 130.135 19.1409C129.773 20.1074 129.597 21.1325 129.617 22.1629C129.617 24.4571 130.23 26.1846 131.456 27.3455C132.093 27.9323 132.841 28.3885 133.658 28.6874C134.474 28.9864 135.343 29.1221 136.213 29.0869C137.183 29.1019 138.147 28.9459 139.061 28.6262C139.798 28.3633 140.514 28.0461 141.203 27.6772C141.622 27.9639 141.981 28.3267 142.263 28.746C142.532 29.1576 142.671 29.6384 142.664 30.128C142.664 31.1845 142.042 32.0521 140.797 32.7308C139.552 33.4095 137.858 33.7504 135.714 33.7535C134.044 33.7711 132.382 33.5286 130.789 33.0349C129.364 32.5922 128.054 31.8469 126.952 30.8513C125.858 29.8357 125.012 28.5882 124.478 27.2027C123.87 25.582 123.575 23.8632 123.61 22.1353C123.571 20.3789 123.889 18.6327 124.543 16.9988C125.103 15.6223 125.962 14.3841 127.061 13.3722C128.16 12.3603 129.471 11.5995 130.901 11.1436C132.39 10.6565 133.949 10.4122 135.518 10.4204C137.624 10.4204 139.305 10.7859 140.559 11.5168C141.813 12.2477 142.436 13.1383 142.426 14.1887C142.432 14.666 142.294 15.1343 142.03 15.5338C141.781 15.9127 141.465 16.2437 141.096 16.5105C140.419 16.1476 139.719 15.8291 139 15.5569C138.107 15.2569 137.166 15.118 136.223 15.1469Z" fill="#FABD5A"/>
<path d="M152.42 33.3207C151.893 33.4219 151.357 33.4697 150.819 33.4635C149.959 33.5261 149.102 33.3146 148.373 32.86C147.838 32.4546 147.57 31.7406 147.57 30.7179V2.92539C147.93 2.80654 148.301 2.72019 148.677 2.66741C149.214 2.58837 149.757 2.54987 150.301 2.55224C151.162 2.48893 152.022 2.7005 152.752 3.15573C153.284 3.56112 153.55 4.27518 153.55 5.29786V11.7104C154.314 11.3424 155.111 11.0462 155.931 10.826C156.906 10.5669 157.913 10.4413 158.923 10.4528C161.78 10.4528 164.056 11.1822 165.752 12.641C167.448 14.0998 168.295 16.2988 168.292 19.2379V33.0903C168.044 33.1502 167.675 33.2285 167.185 33.3207C166.665 33.4198 166.137 33.4676 165.607 33.4635C164.478 33.4635 163.647 33.2623 163.115 32.86C162.583 32.4577 162.315 31.7437 162.312 30.7179V19.5189C162.312 17.9833 161.904 16.8593 161.089 16.1467C160.188 15.4219 159.048 15.0497 157.887 15.101C157.091 15.0968 156.301 15.2309 155.553 15.4972C154.86 15.745 154.197 16.0646 153.573 16.4508V33.0903L152.42 33.3207Z" fill="#FABD5A"/>
<path d="M182.892 10.4526C185.97 10.4526 188.427 11.1037 190.263 12.4059C192.099 13.7081 193.017 15.7227 193.017 18.4499V29.1836C193.054 29.8216 192.854 30.4508 192.453 30.9526C192.051 31.4101 191.578 31.8019 191.052 32.1135C190.01 32.7023 188.881 33.1266 187.705 33.3712C186.189 33.6964 184.64 33.8509 183.089 33.8319C179.952 33.8319 177.479 33.2361 175.671 32.0444C173.863 30.8528 172.959 29.0639 172.959 26.6776C172.959 24.6015 173.627 23.0121 174.962 21.9096C176.297 20.8071 178.235 20.1345 180.778 19.8919L187.229 19.2377V18.4039C187.265 17.896 187.165 17.3876 186.938 16.9305C186.711 16.4733 186.365 16.0836 185.936 15.8011C185.065 15.2544 183.851 14.9811 182.295 14.9811C181.086 14.9851 179.884 15.1399 178.715 15.4417C177.644 15.704 176.603 16.0697 175.606 16.5335C175.245 16.2679 174.948 15.9265 174.737 15.5339C174.499 15.1118 174.377 14.6352 174.383 14.1518C174.363 13.6109 174.527 13.0789 174.85 12.6408C175.237 12.1858 175.728 11.8276 176.283 11.5951C177.282 11.1968 178.326 10.9154 179.391 10.7567C180.549 10.5643 181.719 10.4626 182.892 10.4526ZM183.079 29.3725C183.919 29.3792 184.756 29.2926 185.577 29.1145C186.161 29.012 186.721 28.7994 187.224 28.488V23.3285L182.659 23.7477C181.65 23.7989 180.666 24.0778 179.784 24.5631C179.455 24.7748 179.191 25.0693 179.017 25.4159C178.843 25.7626 178.766 26.1489 178.794 26.5348C178.774 26.9389 178.856 27.3416 179.033 27.7067C179.21 28.0718 179.476 28.3877 179.807 28.6262C180.485 29.1238 181.576 29.3725 183.079 29.3725Z" fill="#FABD5A"/>
<path d="M198.634 4.55144C198.626 4.12268 198.709 3.69702 198.875 3.30081C199.041 2.9046 199.288 2.54629 199.6 2.24807C199.924 1.93083 200.31 1.68252 200.734 1.5185C201.159 1.35447 201.614 1.27822 202.07 1.29449C202.523 1.27689 202.975 1.35258 203.397 1.51675C203.819 1.68093 204.201 1.92998 204.52 2.24807C204.825 2.55016 205.065 2.9099 205.225 3.30572C205.386 3.70153 205.464 4.12525 205.454 4.55144C205.465 4.99176 205.383 5.42954 205.216 5.83779C205.049 6.24604 204.798 6.6161 204.48 6.92512C204.162 7.23418 203.783 7.47567 203.367 7.6347C202.951 7.79377 202.506 7.86697 202.06 7.84988C201.605 7.86674 201.15 7.79123 200.726 7.62801C200.301 7.46475 199.915 7.21728 199.591 6.90089C199.278 6.5944 199.031 6.22784 198.866 5.82378C198.702 5.41977 198.623 4.98674 198.634 4.55144ZM199.101 11.2957C199.353 11.2358 199.717 11.1575 200.207 11.0654C200.727 10.9663 201.255 10.9185 201.785 10.9226C202.914 10.9226 203.739 11.1253 204.259 11.5307C204.772 11.9314 205.034 12.6455 205.034 13.6682V33.0948C204.782 33.1547 204.413 33.233 203.927 33.3252C203.407 33.4243 202.879 33.4721 202.35 33.468C201.22 33.468 200.395 33.2668 199.876 32.8645C199.356 32.4622 199.097 31.7466 199.101 30.7177V11.2957Z" fill="#FABD5A"/>
<path d="M224.835 16.0313C223.931 15.3744 222.823 15.0487 221.702 15.11C220.851 15.1027 220.002 15.2128 219.182 15.4371C218.479 15.6259 217.805 15.908 217.179 16.2755V33.0993L216.049 33.3296C215.522 33.4308 214.986 33.4787 214.448 33.4724C213.587 33.5351 212.728 33.3236 211.998 32.869C211.465 32.4636 211.199 31.7495 211.199 30.7268V15.801C211.167 15.1635 211.33 14.5312 211.666 13.9859C212.058 13.4479 212.553 12.9909 213.123 12.6408C214.237 11.9288 215.462 11.4027 216.75 11.0837C218.377 10.6483 220.058 10.436 221.744 10.4526C224.975 10.4526 227.478 11.1589 229.255 12.5717C231.032 13.9844 231.919 16.0513 231.916 18.7723V33.0901C231.664 33.15 231.295 33.2283 230.81 33.3204C230.29 33.4195 229.761 33.4673 229.232 33.4632C228.102 33.4632 227.277 33.2621 226.758 32.8597C226.238 32.4574 225.98 31.7434 225.983 30.7176V18.9612C225.988 17.6299 225.6 16.6532 224.835 16.0313Z" fill="#FABD5A"/>
<path d="M41.2656 1.52943L41.0555 0H39.5524C29.8383 0 23.7839 6.02562 20.7497 10.2085C17.7155 6.02562 11.6611 0 1.95162 0H0.443858L0.243134 1.52943C-0.273892 6.59805 0.0732338 11.7164 1.2701 16.6718C2.33144 21.2921 4.25473 25.6771 6.94173 29.6029C10.2355 34.306 14.6737 38.1172 19.8488 40.6867C20.1169 40.8593 20.4296 40.9521 20.7497 40.9539H20.7824C21.113 40.9542 21.4368 40.8615 21.716 40.6867C26.8838 38.114 31.3151 34.3031 34.6044 29.6029C37.2913 25.6771 39.2146 21.2921 40.276 16.6718C41.4629 11.7147 41.7974 6.59593 41.2656 1.52943ZM22.8876 25.8807C22.2997 26.3992 21.5382 26.6847 20.7497 26.6822C19.9626 26.6849 19.2024 26.3993 18.6164 25.8807C18.5149 25.7886 18.4212 25.6885 18.3363 25.5812C18.0978 25.2759 17.916 24.9312 17.7995 24.5631C17.0526 22.1446 20.689 16.787 20.7497 16.6994C20.8197 16.8054 24.4421 22.1446 23.6999 24.5585C23.5849 24.9272 23.403 25.2722 23.1631 25.5766C23.0796 25.6851 22.9875 25.7868 22.8876 25.8807ZM22.5095 13.8433C22.4115 13.9999 22.3182 14.1519 22.2341 14.3039C22.3182 14.1519 22.4115 13.9999 22.5095 13.8433ZM36.8403 15.9485C35.8767 20.113 34.1354 24.0639 31.7055 27.599C28.8822 31.6125 25.1254 34.8998 20.7497 37.1856C16.3766 34.898 12.6217 31.611 9.79855 27.599C7.37058 24.0629 5.62946 20.1123 4.66374 15.9485C3.70448 11.9118 3.32576 7.76185 3.53875 3.62089C11.6331 4.28887 16.5018 10.0058 18.6818 13.3457C17.8437 14.7111 17.0862 16.1231 16.4131 17.5747C14.4759 21.8037 14.0791 24.9455 15.2041 27.1291C15.8576 28.4098 17.3561 29.9346 20.7544 29.9346C24.1527 29.9346 25.6511 28.4098 26.3046 27.1291C27.4296 24.9317 27.0375 21.8037 25.0956 17.5747C24.4244 16.1222 23.6668 14.7101 22.827 13.3457C25.0069 10.0058 29.8757 4.28887 37.97 3.62089C38.1814 7.76204 37.8011 11.912 36.8403 15.9485Z" fill="url(#paint0_linear)"/>
<path d="M25.0912 17.5747C24.42 16.1222 23.6625 14.7101 22.8226 13.3457C22.5985 13.6912 22.4025 14.0091 22.2344 14.2947L20.75 16.6994C20.75 16.6994 24.4471 22.1492 23.7048 24.5631C23.588 24.9305 23.4045 25.2739 23.1634 25.5766C23.0896 25.6925 22.9964 25.7953 22.8879 25.8806C22.1271 26.5855 25.6467 28.4097 26.3003 27.1291C27.4252 24.9317 27.0331 21.8037 25.0912 17.5747Z" fill="url(#paint1_linear)"/>
<defs>
<linearGradient id="paint0_linear" x1="36.9804" y1="-4.02168" x2="4.94788" y2="28.4368" gradientUnits="userSpaceOnUse">
<stop offset="0.83" stop-color="#FABD5A"/>
<stop offset="0.95" stop-color="#F89F53"/>
<stop offset="1" stop-color="#F79150"/>
</linearGradient>
<linearGradient id="paint1_linear" x1="23.8402" y1="27.5759" x2="23.8402" y2="13.3457" gradientUnits="userSpaceOnUse">
<stop stop-color="#FABD5A" stop-opacity="0"/>
<stop offset="0.14" stop-color="#F9B558" stop-opacity="0.19"/>
<stop offset="0.45" stop-color="#F8A053" stop-opacity="0.65"/>
<stop offset="0.67" stop-color="#F79150"/>
</linearGradient>
</defs>
</svg>
