<svg width="24" height="26" viewBox="0 0 24 26" fill="none" xmlns="http://www.w3.org/2000/svg">
<path d="M6 26C5.04522 26 4.12953 25.6264 3.45439 24.9615C2.77926 24.2966 2.4 23.3949 2.4 22.4545V7.09091H1.2C0.88174 7.09091 0.57646 6.96638 0.351416 6.74475C0.126372 6.52311 0 6.22253 0 5.90909C0 5.59565 0.126372 5.29507 0.351416 5.07344C0.57646 4.8518 0.88174 4.72727 1.2 4.72727H6V3.54545C6 2.60514 6.37926 1.70336 7.05439 1.03845C7.72953 0.373553 8.64522 0 9.6 0H14.4C15.3548 0 16.2705 0.373553 16.9456 1.03845C17.6207 1.70336 18 2.60514 18 3.54545V4.72727H22.8C23.1183 4.72727 23.4235 4.8518 23.6486 5.07344C23.8736 5.29507 24 5.59565 24 5.90909C24 6.22253 23.8736 6.52311 23.6486 6.74475C23.4235 6.96638 23.1183 7.09091 22.8 7.09091H21.6V22.4545C21.6 23.3949 21.2207 24.2966 20.5456 24.9615C19.8705 25.6264 18.9548 26 18 26H6ZM4.8 22.4545C4.8 22.768 4.92637 23.0686 5.15142 23.2902C5.37646 23.5118 5.68174 23.6364 6 23.6364H18C18.3183 23.6364 18.6235 23.5118 18.8486 23.2902C19.0736 23.0686 19.2 22.768 19.2 22.4545V7.09091H4.8V22.4545ZM15.6 4.72727V3.54545C15.6 3.23202 15.4736 2.93143 15.2486 2.7098C15.0235 2.48817 14.7183 2.36364 14.4 2.36364H9.6C9.28174 2.36364 8.97646 2.48817 8.75142 2.7098C8.52637 2.93143 8.4 3.23202 8.4 3.54545V4.72727H15.6ZM13.2 18.9091V11.8182C13.2 11.5047 13.3264 11.2042 13.5514 10.9825C13.7765 10.7609 14.0817 10.6364 14.4 10.6364C14.7183 10.6364 15.0235 10.7609 15.2486 10.9825C15.4736 11.2042 15.6 11.5047 15.6 11.8182V18.9091C15.6 19.2225 15.4736 19.5231 15.2486 19.7447C15.0235 19.9664 14.7183 20.0909 14.4 20.0909C14.0817 20.0909 13.7765 19.9664 13.5514 19.7447C13.3264 19.5231 13.2 19.2225 13.2 18.9091ZM8.4 18.9091V11.8182C8.4 11.5047 8.52637 11.2042 8.75142 10.9825C8.97646 10.7609 9.28174 10.6364 9.6 10.6364C9.91826 10.6364 10.2235 10.7609 10.4486 10.9825C10.6736 11.2042 10.8 11.5047 10.8 11.8182V18.9091C10.8 19.2225 10.6736 19.5231 10.4486 19.7447C10.2235 19.9664 9.91826 20.0909 9.6 20.0909C9.28174 20.0909 8.97646 19.9664 8.75142 19.7447C8.52637 19.5231 8.4 19.2225 8.4 18.9091Z" fill="#EA3A3D"/>
</svg>
