<svg width="27" height="27" viewBox="0 0 27 27" fill="none" xmlns="http://www.w3.org/2000/svg">
<path d="M5.146 25.8343C4.48803 25.8618 3.8315 25.7526 3.21784 25.5136C2.60418 25.2747 2.0467 24.9111 1.58057 24.4459C1.11444 23.9807 0.749789 23.424 0.50959 22.8108C0.269392 22.1976 0.15887 21.5413 0.185005 20.8833C0.0265736 18.9266 -0.0301524 16.9629 0.0150223 15.0003C-0.0295149 13.0384 0.0262166 11.0755 0.182014 9.11932C0.152517 8.46133 0.260336 7.80437 0.498543 7.19031C0.73675 6.57624 1.10012 6.01852 1.56562 5.55255C2.03112 5.08658 2.58851 4.72259 3.20234 4.48376C3.81617 4.24494 4.47303 4.13645 5.13105 4.16528C7.0883 4.01026 9.05216 3.95521 11.015 4.00031H11.044C11.3092 4.00415 11.5621 4.11321 11.7469 4.30347C11.9317 4.49372 12.0334 4.74962 12.0295 5.01483C12.0257 5.28005 11.9166 5.53283 11.7264 5.71765C11.5361 5.90247 11.2802 6.00415 11.015 6.00031C8.52002 6.00031 6.66305 6.00733 5.35505 6.15533C4.92329 6.10092 4.48479 6.14599 4.07313 6.28711C3.66147 6.42823 3.28756 6.66162 2.97999 6.96948C2.67242 7.27734 2.43932 7.6515 2.29859 8.06329C2.15786 8.47508 2.11322 8.91357 2.16804 9.34528C2.02004 10.6523 2.01502 12.5083 2.01502 15.0013C2.01502 17.4943 2.02404 19.3493 2.17304 20.6563C2.12008 21.0888 2.16644 21.5277 2.30866 21.9396C2.45089 22.3515 2.68522 22.7256 2.99378 23.0333C3.30234 23.341 3.67701 23.5742 4.0893 23.7153C4.5016 23.8563 4.94062 23.9015 5.37299 23.8473C6.67899 23.9953 8.53204 24.0013 11.017 24.0013C13.502 24.0013 15.356 23.9943 16.662 23.8453C17.095 23.8987 17.5346 23.8528 17.9472 23.7109C18.3597 23.569 18.7345 23.3348 19.043 23.0263C19.3516 22.7178 19.5857 22.343 19.7276 21.9304C19.8695 21.5178 19.9155 21.0783 19.862 20.6453C20.012 19.3393 20.02 17.4843 20.02 14.9973V14.9693C20.0237 14.7041 20.1327 14.4512 20.3228 14.2663C20.513 14.0814 20.7688 13.9796 21.034 13.9833C21.2992 13.987 21.5521 14.0959 21.737 14.2861C21.9219 14.4762 22.0237 14.7321 22.02 14.9973C22.0648 16.9573 22.007 18.9183 21.847 20.8723C21.874 21.5306 21.7642 22.1873 21.5245 22.8009C21.2848 23.4146 20.9203 23.9718 20.4543 24.4375C19.9883 24.9032 19.4307 25.2671 18.8169 25.5063C18.2031 25.7455 17.5462 25.8549 16.888 25.8273C14.9346 25.9864 12.9744 26.0441 11.015 26.0003H10.715C8.85708 26.0413 6.99822 25.9859 5.146 25.8343ZM10.015 17.0003C9.74981 17.0003 9.49547 16.8949 9.30793 16.7074C9.12039 16.5199 9.01502 16.2655 9.01502 16.0003V13.0003C9.01481 12.7353 9.11983 12.481 9.30701 12.2933L21.307 0.293335C21.3999 0.200359 21.5102 0.126557 21.6316 0.0762329C21.753 0.0259086 21.8831 0 22.0145 0C22.146 0 22.2761 0.0259086 22.3975 0.0762329C22.5189 0.126557 22.6291 0.200359 22.722 0.293335L25.722 3.29333C25.815 3.38621 25.8888 3.49646 25.9391 3.61786C25.9894 3.73926 26.0153 3.86938 26.0153 4.00079C26.0153 4.13221 25.9894 4.26233 25.9391 4.38373C25.8888 4.50513 25.815 4.61544 25.722 4.70831L13.722 16.7083C13.5343 16.8955 13.2801 17.0005 13.015 17.0003H10.015ZM11.015 13.4143V15.0003H12.601L20.601 7.00031L19.015 5.41431L11.015 13.4143ZM20.429 4.00031L22.015 5.5863L23.6 4.00031L22.015 2.41431L20.429 4.00031Z" fill="white"/>
</svg>
