<svg width="12" height="14" viewBox="0 0 12 14" fill="none" xmlns="http://www.w3.org/2000/svg">
<path d="M7.79931 13.9953C7.78507 13.9953 7.77083 13.9953 7.75659 13.9953H4.20215C3.48779 14.0092 2.77303 13.9923 2.06077 13.9447C1.79715 13.9509 1.53482 13.9122 1.28976 13.831C1.04469 13.7498 0.822085 13.6278 0.635535 13.4725C0.448984 13.3171 0.302369 13.1316 0.204754 12.9274C0.107139 12.7232 0.0605987 12.5046 0.0678367 12.2849C0.0101367 11.6907 -0.0106261 11.0944 0.00564324 10.4984V3.50446C-0.0110109 2.90909 0.0091953 2.31345 0.0662819 1.71983C0.0589541 1.50014 0.105455 1.28151 0.202925 1.07731C0.300394 0.873101 0.446769 0.68759 0.633157 0.53213C0.819545 0.37667 1.04207 0.254488 1.28701 0.1731C1.53195 0.0917117 1.79425 0.0528172 2.05784 0.0587592C2.77083 0.0106787 3.48629 -0.00662583 4.20141 0.00692476H7.7019C7.73065 0.00297697 7.75966 0.000690428 7.78879 6.43078e-05C7.83081 -0.000515795 7.87278 0.00283009 7.91391 0.0100501C8.37586 -0.0233978 8.84063 0.0377168 9.2678 0.188041C10.2294 0.77307 11.076 1.47919 11.777 2.28116C11.9556 2.63606 12.0287 3.02172 11.9899 3.40521C12.003 3.46487 12.003 3.52598 11.9899 3.58564V10.4965C12.0062 11.0921 11.9854 11.688 11.9277 12.2818C11.935 12.5015 11.8885 12.7201 11.7909 12.9243C11.6934 13.1285 11.5469 13.314 11.3604 13.4693C11.1739 13.6247 10.9513 13.7467 10.7063 13.8279C10.4613 13.9091 10.199 13.9478 9.93538 13.9416C9.25935 13.9884 8.58085 14.0057 7.90266 13.9934L7.79931 13.9953ZM2.19339 1.0504C2.06561 1.03135 1.93427 1.0383 1.81044 1.07075C1.68661 1.1032 1.57399 1.16014 1.48228 1.2367C1.39057 1.31326 1.32245 1.40717 1.28372 1.51043C1.24499 1.61369 1.23679 1.72321 1.25985 1.82967C1.2089 2.20434 1.20589 2.75577 1.20589 3.50324V10.4971C1.20589 11.2464 1.2059 11.7985 1.25985 12.1713C1.23686 12.2778 1.24512 12.3874 1.28399 12.4907C1.32286 12.594 1.39123 12.6879 1.4831 12.7644C1.57498 12.8409 1.68767 12.8978 1.81163 12.9301C1.93559 12.9624 2.06713 12.9692 2.19494 12.95C2.64449 12.9918 3.30605 12.9943 4.20215 12.9943H7.79857H7.84046C8.71259 12.9943 9.36745 12.9905 9.80651 12.9493C9.93419 12.9682 10.0655 12.9612 10.1892 12.9288C10.3129 12.8964 10.4255 12.8397 10.5173 12.7633C10.609 12.687 10.6773 12.5933 10.7164 12.4902C10.7554 12.3871 10.7641 12.2777 10.7416 12.1713C10.7926 11.7966 10.7956 11.2446 10.7956 10.4971V4.00283H7.79857C7.6396 4.00283 7.48715 3.95016 7.37474 3.85647C7.26234 3.76279 7.19914 3.63573 7.19914 3.50324V1.00542H4.20215C3.3053 1.00542 2.64069 1.00856 2.19339 1.0504ZM8.39792 3.00303H10.782C10.7791 2.90782 10.7536 2.81402 10.7071 2.72702C10.1243 2.11902 9.46242 1.56678 8.73358 1.08036C8.62826 1.04129 8.51473 1.02008 8.39947 1.01793L8.39792 3.00303ZM6.21164 11.6236C6.11571 11.6238 6.02101 11.6058 5.9346 11.571C5.84819 11.5363 5.77228 11.4858 5.71262 11.4232L2.98242 9.14763C2.8623 9.04744 2.79486 8.91164 2.79493 8.77C2.795 8.62836 2.86257 8.49249 2.98279 8.39237C3.10301 8.29226 3.26603 8.23605 3.43598 8.23611C3.60593 8.23617 3.76886 8.29248 3.88898 8.39268L5.57479 9.79838V5.26729C5.57479 5.19753 5.59131 5.1285 5.62336 5.06407C5.65541 4.99963 5.70234 4.94109 5.76156 4.89179C5.82077 4.8425 5.89109 4.8034 5.96844 4.77677C6.04579 4.75013 6.12867 4.73644 6.21237 4.73652H6.21987C6.38877 4.73652 6.55079 4.79248 6.67022 4.89202C6.78966 4.99156 6.85671 5.12651 6.85671 5.26729V9.79899L8.54334 8.39336C8.66411 8.29586 8.82602 8.24178 8.99415 8.24289C9.16228 8.24401 9.32315 8.30022 9.44204 8.39931C9.56093 8.4984 9.62829 8.63247 9.62962 8.77259C9.63096 8.91272 9.56616 9.04767 9.44917 9.14832L6.71586 11.4263C6.65626 11.4881 6.58074 11.5381 6.49489 11.5723C6.40904 11.6066 6.31505 11.6243 6.21987 11.6243L6.21164 11.6236Z" fill="white"/>
</svg>
