<svg width="24" height="20" viewBox="0 0 24 20" fill="none" xmlns="http://www.w3.org/2000/svg">
<path d="M22 19V17C21.999 16.3357 21.7774 15.6906 21.3702 15.1657C20.963 14.6409 20.3932 14.2661 19.75 14.1C19.4931 14.0337 19.2732 13.8681 19.1384 13.6396C19.0037 13.411 18.9652 13.1384 19.0315 12.8815C19.0978 12.6246 19.2634 12.4046 19.4919 12.2699C19.7205 12.1352 19.9931 12.0967 20.25 12.163C21.3226 12.4399 22.2728 13.0652 22.9515 13.9407C23.6303 14.8162 23.9991 15.8922 24 17V19C24 19.2652 23.8947 19.5196 23.7072 19.7071C23.5196 19.8946 23.2652 20 23 20C22.7348 20 22.4804 19.8946 22.2928 19.7071C22.1053 19.5196 22 19.2652 22 19ZM16 19V17C16 16.2044 15.6839 15.4413 15.1213 14.8787C14.5587 14.3161 13.7956 14 13 14H5C4.20435 14 3.44127 14.3161 2.87866 14.8787C2.31605 15.4413 2 16.2044 2 17V19C2 19.2652 1.89469 19.5196 1.70715 19.7071C1.51962 19.8946 1.26522 20 1 20C0.734784 20 0.480383 19.8946 0.292847 19.7071C0.10531 19.5196 0 19.2652 0 19V17C0 15.6739 0.526796 14.4022 1.46448 13.4645C2.40216 12.5268 3.67392 12 5 12H13C14.3261 12 15.5978 12.5268 16.5355 13.4645C17.4732 14.4022 18 15.6739 18 17V19C18 19.2652 17.8947 19.5196 17.7072 19.7071C17.5196 19.8946 17.2652 20 17 20C16.7348 20 16.4804 19.8946 16.2928 19.7071C16.1053 19.5196 16 19.2652 16 19ZM4 5C4 4.0111 4.29324 3.04439 4.84265 2.22214C5.39206 1.39989 6.17292 0.759055 7.08655 0.380617C8.00018 0.00217915 9.00556 -0.0968547 9.97546 0.0960714C10.9454 0.288998 11.8363 0.765217 12.5355 1.46448C13.2348 2.16374 13.711 3.05463 13.9039 4.02454C14.0969 4.99444 13.9978 5.99979 13.6194 6.91342C13.2409 7.82705 12.6001 8.60794 11.7778 9.15735C10.9556 9.70676 9.98891 10 9 10C7.67392 10 6.40216 9.47321 5.46448 8.53552C4.5268 7.59784 4 6.32608 4 5ZM6 5C6 5.59335 6.17597 6.17337 6.50562 6.66672C6.83526 7.16007 7.30375 7.54458 7.85193 7.77164C8.40011 7.9987 9.00338 8.05811 9.58533 7.94235C10.1673 7.8266 10.7018 7.54087 11.1213 7.12131C11.5409 6.70175 11.8266 6.16721 11.9424 5.58527C12.0581 5.00332 11.9987 4.40014 11.7716 3.85196C11.5445 3.30378 11.1601 2.83523 10.6667 2.50559C10.1734 2.17594 9.59334 2 9 2C8.20435 2 7.44127 2.31609 6.87866 2.87869C6.31605 3.4413 6 4.20435 6 5ZM15.031 9.12702C14.9655 8.87016 15.0046 8.59777 15.1398 8.36975C15.275 8.14174 15.4951 7.97674 15.752 7.91101C16.3975 7.74596 16.9698 7.3707 17.3784 6.84442C17.7871 6.31815 18.0089 5.67079 18.0089 5.00449C18.0089 4.33819 17.7871 3.69086 17.3784 3.16458C16.9698 2.63831 16.3975 2.26305 15.752 2.09799C15.495 2.03169 15.2749 1.86603 15.14 1.63742C15.0052 1.40882 14.9667 1.13599 15.033 0.879C15.0993 0.622005 15.2649 0.40187 15.4935 0.267031C15.7221 0.132192 15.995 0.0937016 16.252 0.160006C17.3277 0.435208 18.2812 1.06067 18.9622 1.93775C19.6431 2.81483 20.0128 3.89361 20.0128 5.004C20.0128 6.11439 19.6431 7.19317 18.9622 8.07025C18.2812 8.94733 17.3277 9.57279 16.252 9.84799C16.1247 9.88059 15.9923 9.8878 15.8623 9.8692C15.7323 9.85061 15.6072 9.80658 15.4941 9.73963C15.3811 9.67267 15.2824 9.58412 15.2036 9.47901C15.1248 9.37389 15.0676 9.25428 15.035 9.12702H15.031Z" fill="#809FB8"/>
</svg>
