<svg width="21" height="21" viewBox="0 0 21 21" fill="none" xmlns="http://www.w3.org/2000/svg">
<path d="M0.00340462 6.04702C0.00365067 6.04472 0.00418282 6.0425 0.00442886 6.04021C0.0066452 6.02109 0.00951576 6.00223 0.0134125 5.98369C0.0140266 5.98078 0.0149708 5.97795 0.0156269 5.97503C0.0196476 5.95723 0.0242405 5.93968 0.0297775 5.92249C0.0311718 5.91819 0.0329361 5.91404 0.0344524 5.90978C0.0398254 5.89423 0.0455685 5.87889 0.0521317 5.86392C0.0527058 5.86257 0.0531139 5.86117 0.05369 5.85986L2.29745 0.8489C2.52837 0.333211 3.04266 0 3.60765 0H17.3926C17.9573 0 18.4715 0.332965 18.7026 0.848244L20.9461 5.85215C20.9817 5.93131 21 6.01712 21 6.10386V8.11502C21 9.31896 20.3145 10.3722 19.3184 10.8926V19.5645C19.3184 20.356 18.6744 21 17.8828 21H3.11719C2.32563 21 1.68164 20.356 1.68164 19.5645V10.8926C0.685453 10.3722 0 9.319 0 8.11502V6.11133C0 6.08959 0.00119019 6.06818 0.00340462 6.04702ZM17.3926 1.23047H14.9771L15.9348 5.49609H19.438L17.5798 1.35167C17.5468 1.27805 17.4733 1.23047 17.3926 1.23047ZM6.17917 8.26202C6.23638 9.23426 7.04247 10.0078 8.02881 10.0078C9.05219 10.0078 9.88477 9.17524 9.88477 8.15186C9.88477 8.14665 9.88477 6.72656 9.88477 6.72656H6.17917V8.26202ZM11.1152 1.23047V5.49609H14.6737L13.716 1.23047H11.1152ZM7.28405 1.23047L6.32629 5.49609H9.88477V1.23047H7.28405ZM14.8208 8.26202C14.8208 8.12109 14.8208 6.72656 14.8208 6.72656H11.1152V8.15186C11.1152 9.17524 11.9478 10.0078 12.9712 10.0078C13.9575 10.0078 14.7636 9.23426 14.8208 8.26202ZM19.7695 6.72656H16.0576V8.15186C16.0576 8.65216 16.2537 9.12126 16.6098 9.47276C16.9658 9.82419 17.4375 10.0131 17.9384 10.0076C18.9481 9.99457 19.7695 9.14554 19.7695 8.11502V6.72656ZM3.06161 10.0076C3.56311 10.013 4.03417 9.82419 4.39019 9.47276C4.74629 9.12126 4.94866 8.65216 4.94866 8.15186C4.94866 8.09989 4.94866 6.72656 4.94866 6.72656H1.23047V8.11502C1.23047 9.14554 2.05189 9.99457 3.06161 10.0076ZM5.06518 5.49609L6.02294 1.23047H3.60765C3.52693 1.23047 3.45347 1.27809 3.4205 1.35175L1.56483 5.49609H5.06518ZM13.9863 14.8477H11.1152V19.7695H13.9863V14.8477ZM9.88477 14.8477H7.01367V19.7695H9.88477V14.8477ZM2.91211 19.5645C2.91211 19.6775 3.00411 19.7695 3.11719 19.7695H5.7832V14.8477H5.57812C5.23835 14.8477 4.96289 14.5722 4.96289 14.2324C4.96289 13.8926 5.23835 13.6172 5.57812 13.6172H15.4219C15.7616 13.6172 16.0371 13.8926 16.0371 14.2324C16.0371 14.5722 15.7616 14.8477 15.4219 14.8477H15.2168V19.7695H17.8828C17.9959 19.7695 18.0879 19.6775 18.0879 19.5645V11.2328C18.0436 11.2353 17.9991 11.2374 17.9544 11.238C17.1226 11.2491 16.3375 10.9329 15.7454 10.3484C15.6346 10.239 15.5331 10.1227 15.4412 10.0006C14.8777 10.7515 13.9802 11.2383 12.9712 11.2383C11.9614 11.2383 11.0634 10.7509 10.5 9.99903C9.93657 10.7509 9.03857 11.2383 8.02881 11.2383C7.01978 11.2383 6.12228 10.7515 5.55877 10.0006C5.46697 10.1228 5.36542 10.2391 5.25455 10.3485C4.66249 10.9329 3.87671 11.2496 3.04562 11.238C3.00083 11.2375 2.95641 11.2354 2.91207 11.2329V19.5645H2.91211Z" fill="#809FB8"/>
</svg>
