<svg width="20" height="20" viewBox="0 0 20 20" fill="none" xmlns="http://www.w3.org/2000/svg">
<path d="M12 20C11.7348 20 11.4804 19.8946 11.2929 19.7071C11.1054 19.5196 11 19.2652 11 19V12C11 11.7348 11.1054 11.4804 11.2929 11.2929C11.4804 11.1054 11.7348 11 12 11H19C19.2652 11 19.5196 11.1054 19.7071 11.2929C19.8946 11.4804 20 11.7348 20 12V19C20 19.2652 19.8946 19.5196 19.7071 19.7071C19.5196 19.8946 19.2652 20 19 20H12ZM13 18H18V13H13V18ZM1 20C0.734784 20 0.480429 19.8946 0.292892 19.7071C0.105356 19.5196 0 19.2652 0 19V12C0 11.7348 0.105356 11.4804 0.292892 11.2929C0.480429 11.1054 0.734784 11 1 11H8C8.26522 11 8.51957 11.1054 8.70711 11.2929C8.89464 11.4804 9 11.7348 9 12V19C9 19.2652 8.89464 19.5196 8.70711 19.7071C8.51957 19.8946 8.26522 20 8 20H1ZM2 18H7V13H2V18ZM12 9C11.7348 9 11.4804 8.89464 11.2929 8.70711C11.1054 8.51957 11 8.26522 11 8V1C11 0.734784 11.1054 0.480429 11.2929 0.292892C11.4804 0.105356 11.7348 0 12 0H19C19.2652 0 19.5196 0.105356 19.7071 0.292892C19.8946 0.480429 20 0.734784 20 1V8C20 8.26522 19.8946 8.51957 19.7071 8.70711C19.5196 8.89464 19.2652 9 19 9H12ZM13 7H18V2H13V7ZM1 9C0.734784 9 0.480429 8.89464 0.292892 8.70711C0.105356 8.51957 0 8.26522 0 8V1C0 0.734784 0.105356 0.480429 0.292892 0.292892C0.480429 0.105356 0.734784 0 1 0H8C8.26522 0 8.51957 0.105356 8.70711 0.292892C8.89464 0.480429 9 0.734784 9 1V8C9 8.26522 8.89464 8.51957 8.70711 8.70711C8.51957 8.89464 8.26522 9 8 9H1ZM2 7H7V2H2V7Z" fill="#809FB8"/>
</svg>
