<svg width="22" height="18" viewBox="0 0 22 18" fill="none" xmlns="http://www.w3.org/2000/svg">
<path d="M3 18C2.20435 18 1.44129 17.684 0.878681 17.1214C0.316072 16.5588 0 15.7957 0 15V10C0 9.99104 0 9.98304 0 9.97404C0 9.96704 0 9.95907 0 9.95207C0 9.94507 0 9.93703 0 9.93003V9.92301V9.90403V9.89604V9.87907V9.86704V9.85404V9.83805V9.82902V9.80906C0.0145264 9.74028 0.0363138 9.67323 0.0649986 9.60905L3.535 1.80003C3.76954 1.26261 4.15643 0.805725 4.64784 0.485819C5.13925 0.165912 5.71364 -0.00297756 6.3 3.97336e-05H15.7C16.2813 -0.000357412 16.8502 0.168134 17.3375 0.485025C17.8248 0.801916 18.2096 1.25353 18.445 1.78501L21.902 9.56706C21.9667 9.70222 22.0002 9.85019 22 10V15C22 15.7957 21.6839 16.5588 21.1213 17.1214C20.5587 17.684 19.7956 18 19 18H3ZM2 15C2 15.2653 2.10536 15.5196 2.29289 15.7071C2.48043 15.8947 2.73478 16 3 16H19C19.2652 16 19.5196 15.8947 19.7071 15.7071C19.8946 15.5196 20 15.2653 20 15V11H15.535L13.835 13.555C13.7434 13.6924 13.6192 13.8049 13.4735 13.8825C13.3278 13.9602 13.1651 14.0006 13 14H9C8.83524 14.0002 8.67298 13.9597 8.52766 13.8821C8.38233 13.8044 8.25844 13.6921 8.167 13.555L6.465 11H2V15ZM7 9.00004C7.16459 9.00002 7.32665 9.04064 7.47178 9.11827C7.61692 9.19589 7.74065 9.30813 7.832 9.44505L9.532 11.9991H12.462L14.162 9.44505C14.2539 9.30728 14.3786 9.19447 14.5249 9.1168C14.6711 9.03913 14.8344 8.99902 15 9.00004H19.462L16.617 2.60002C16.5391 2.42161 16.4109 2.26983 16.248 2.16325C16.0851 2.05667 15.8947 1.99995 15.7 2.00004H6.3C6.10624 1.99991 5.91661 2.05609 5.75417 2.16172C5.59173 2.26735 5.46347 2.41785 5.385 2.59501L2.539 9.00004H7Z" fill="#809FB8"/>
</svg>
