<svg width="28" height="25" viewBox="0 0 28 25" fill="none" xmlns="http://www.w3.org/2000/svg">
<path d="M25.2635 23.129C25.6531 22.6042 25.884 21.9549 25.884 21.2526C25.884 19.5131 24.4688 18.0979 22.7293 18.0979C20.9897 18.0979 19.5746 19.5131 19.5746 21.2526C19.5746 21.9565 19.8065 22.6073 20.1977 23.1328C19.8334 23.292 19.4947 23.4988 19.1894 23.7456V13.1886H21.679V8.26219H19.1096C18.8357 6.80925 17.8483 5.60563 16.5258 5.03114C16.9154 4.50636 17.1463 3.85705 17.1463 3.15476C17.1464 1.4152 15.7312 0 13.9917 0C12.2522 0 10.837 1.4152 10.837 3.1547C10.837 3.85864 11.069 4.50942 11.4602 5.03486C10.142 5.61077 9.15802 6.81226 8.8847 8.26213H6.3263V13.1885H8.78959V23.7291C8.48728 23.4878 8.15303 23.2851 7.79379 23.129C8.18338 22.6042 8.41427 21.9549 8.41427 21.2526C8.41427 19.5131 6.99907 18.0979 5.25957 18.0979C3.52007 18.0979 2.10487 19.5131 2.10487 21.2526C2.10487 21.9565 2.3368 22.6073 2.72803 23.1328C1.16834 23.8142 0.0751953 25.371 0.0751953 27.1789V28H27.9246V27.179C27.9246 25.3677 26.8277 23.8085 25.2635 23.129ZM5.25963 19.74C6.09366 19.74 6.77223 20.4186 6.77223 21.2526C6.77223 22.0866 6.09366 22.7652 5.25963 22.7652C4.42559 22.7652 3.74702 22.0866 3.74702 21.2526C3.74702 20.4186 4.42553 19.74 5.25963 19.74ZM1.84149 26.358C2.19226 25.2292 3.24647 24.4073 4.48908 24.4073H6.04122C7.28383 24.4073 8.33804 25.2292 8.6888 26.358H1.84149ZM13.9917 1.64205C14.8258 1.64205 15.5043 2.32061 15.5043 3.15465C15.5043 3.98869 14.8258 4.66725 13.9917 4.66725C13.1577 4.66725 12.4791 3.98869 12.4791 3.15465C12.4791 2.32061 13.1576 1.64205 13.9917 1.64205ZM13.2211 6.30941H14.7733C16.0167 6.30941 17.0713 7.1324 17.4214 8.26224H10.573C10.9231 7.13234 11.9778 6.30941 13.2211 6.30941ZM7.96846 11.5464V9.90423H20.0371V11.5464H7.96846ZM10.5736 26.358C10.9244 25.2292 11.9786 24.4073 13.2212 24.4073H14.7733C16.0159 24.4073 17.0702 25.2292 17.4209 26.358H10.5736ZM12.4791 21.2526C12.4791 20.4186 13.1576 19.74 13.9917 19.74C14.8257 19.74 15.5043 20.4186 15.5043 21.2526C15.5043 22.0866 14.8257 22.7652 13.9917 22.7652C13.1576 22.7653 12.4791 22.0867 12.4791 21.2526ZM17.5473 23.7493C17.2384 23.4989 16.8952 23.2895 16.5259 23.129C16.9155 22.6042 17.1464 21.9549 17.1464 21.2526C17.1464 19.5131 15.7312 18.0979 13.9917 18.0979C12.2522 18.0979 10.837 19.5131 10.837 21.2526C10.837 21.9565 11.069 22.6073 11.4602 23.1328C11.088 23.2954 10.7422 23.5074 10.4316 23.7613V13.1886H17.5473V23.7493ZM22.7293 19.74C23.5634 19.74 24.2419 20.4186 24.2419 21.2526C24.2419 22.0866 23.5634 22.7652 22.7293 22.7652C21.8952 22.7652 21.2167 22.0866 21.2167 21.2526C21.2167 20.4186 21.8952 19.74 22.7293 19.74ZM19.3112 26.358C19.662 25.2292 20.7162 24.4073 21.9588 24.4073H23.5109C24.7535 24.4073 25.8077 25.2292 26.1585 26.358H19.3112Z" fill="#809FB8"/>
</svg>
