<svg width="20" height="22" viewBox="0 0 20 22" fill="none" xmlns="http://www.w3.org/2000/svg">
<path d="M2.98701 22C2.19312 21.9981 1.43247 21.681 0.872323 21.1185C0.31218 20.5559 -0.00158492 19.7939 8.19982e-06 19V3C-0.000912041 2.60687 0.0756333 2.2174 0.225258 1.85385C0.374884 1.49031 0.594666 1.15981 0.872048 0.881226C1.14943 0.602637 1.47897 0.381427 1.84187 0.230225C2.20476 0.0790221 2.59388 0.000787025 2.98701 0H7.965C8.23022 0 8.48459 0.105371 8.67213 0.292908C8.85966 0.480444 8.965 0.734784 8.965 1C8.965 1.26522 8.85966 1.51956 8.67213 1.70709C8.48459 1.89463 8.23022 2 7.965 2H2.98701C2.72179 2 2.46745 2.10537 2.27992 2.29291C2.09238 2.48044 1.98701 2.73478 1.98701 3V19C1.98701 19.2652 2.09238 19.5196 2.27992 19.7071C2.46745 19.8946 2.72179 20 2.98701 20H7.965C8.23022 20 8.48459 20.1054 8.67213 20.2929C8.85966 20.4804 8.965 20.7348 8.965 21C8.965 21.2652 8.85966 21.5196 8.67213 21.7071C8.48459 21.8946 8.23022 22 7.965 22H2.98701ZM14.23 15.706C14.0425 15.5185 13.9372 15.2642 13.9372 14.999C13.9372 14.7338 14.0425 14.4795 14.23 14.292L16.512 12H6.969C6.70379 12 6.44945 11.8946 6.26191 11.7071C6.07437 11.5196 5.969 11.2652 5.969 11C5.969 10.7348 6.07437 10.4804 6.26191 10.2929C6.44945 10.1054 6.70379 10 6.969 10H16.512L14.229 7.70801C14.136 7.61513 14.0623 7.50485 14.0119 7.38345C13.9616 7.26206 13.9357 7.1319 13.9357 7.00049C13.9357 6.86907 13.9616 6.73895 14.0119 6.61755C14.0623 6.49616 14.136 6.38587 14.229 6.293C14.3213 6.20009 14.4311 6.12634 14.552 6.07602C14.6729 6.0257 14.8025 5.99982 14.9335 5.99982C15.0645 5.99982 15.1941 6.0257 15.315 6.07602C15.436 6.12634 15.5457 6.20009 15.638 6.293L19.602 10.276C19.6449 10.3168 19.684 10.3613 19.719 10.409L19.732 10.427V10.433L19.741 10.446L19.747 10.455L19.753 10.465L19.76 10.477V10.485L19.768 10.499V10.506L19.776 10.521V10.528L19.784 10.543V10.55L19.791 10.564V10.572L19.797 10.585V10.595L19.802 10.607L19.807 10.619V10.628L19.813 10.642V10.65L19.819 10.667V10.672L19.825 10.691L19.831 10.712L19.837 10.734C19.8473 10.7725 19.8553 10.8116 19.861 10.851V10.874V10.895V10.914V10.938C19.861 10.938 19.861 10.946 19.861 10.95C19.861 10.954 19.861 10.958 19.861 10.963C19.861 10.968 19.861 10.978 19.861 10.986C19.861 10.994 19.861 11.003 19.861 11.011V11.021C19.861 11.026 19.861 11.031 19.861 11.036C19.861 11.041 19.861 11.045 19.861 11.05V11.084V11.104V11.126V11.149C19.8557 11.181 19.849 11.2123 19.841 11.243L19.835 11.265L19.828 11.286L19.822 11.305V11.311L19.816 11.327V11.335L19.811 11.348V11.359V11.37L19.805 11.384V11.391L19.797 11.407L19.788 11.426C19.7408 11.5186 19.6794 11.6033 19.606 11.677L15.624 15.677C15.5317 15.7699 15.422 15.8437 15.3011 15.894C15.1802 15.9443 15.0505 15.9702 14.9195 15.9702C14.7885 15.9702 14.6589 15.9443 14.538 15.894C14.4171 15.8437 14.3073 15.7699 14.215 15.677L14.23 15.706Z" fill="#809FB8"/>
</svg>
