<svg width="24" height="24" viewBox="0 0 24 24" fill="none" xmlns="http://www.w3.org/2000/svg">
<path d="M21.8293 8.31372H18.6333V20.6152H21.8293V8.31372Z" fill="#809FB8"/>
<path d="M17.6684 8.31372H14.5327V20.6152H17.6684V8.31372Z" fill="#809FB8"/>
<path d="M12.1505 0.550781L0.783691 5.42109V7.34881H23.5174V5.42109L12.1505 0.550781ZM12.1348 6.09852C11.1077 6.09852 10.2751 5.26588 10.2751 4.23882C10.2751 3.21177 11.1077 2.37912 12.1348 2.37912C13.1619 2.37912 13.9945 3.21171 13.9945 4.23882C13.9933 5.26539 13.1614 6.09731 12.1348 6.09852Z" fill="#809FB8"/>
<path d="M12.1351 5.13325C12.6293 5.13325 13.03 4.7326 13.03 4.23838C13.03 3.74415 12.6293 3.34351 12.1351 3.34351C11.6409 3.34351 11.2402 3.74415 11.2402 4.23838C11.2402 4.7326 11.6409 5.13325 12.1351 5.13325Z" fill="#809FB8"/>
<path d="M24 21.5798H0V23.4492H24V21.5798Z" fill="#809FB8"/>
<path d="M5.36664 8.31372H2.47217V20.6152H5.36664V8.31372Z" fill="#809FB8"/>
<path d="M9.46722 8.31372H6.33154V20.6152H9.46722V8.31372Z" fill="#809FB8"/>
<path d="M13.5678 8.31372H10.4321V20.6152H13.5678V8.31372Z" fill="#809FB8"/>
</svg>
