<svg width="24" height="24" viewBox="0 0 24 24" fill="none" xmlns="http://www.w3.org/2000/svg">
<path d="M14 9.08984L22.81 10.8398C23.52 10.9898 24 11.5898 24 12.2998V22.4998C24 23.3298 23.33 23.9998 22.5 23.9998H13.5C13.78 23.9998 14 23.7798 14 23.4998V22.9998H22.5C22.77 22.9998 23 22.7798 23 22.4998V12.2998C23 12.0698 22.84 11.8598 22.61 11.8098L14 10.1098V9.08984Z" fill="#809FB8"/>
<path d="M19.5 13.9998C19.78 13.9998 20 14.2198 20 14.4998C20 14.7798 19.78 14.9998 19.5 14.9998H17.5C17.22 14.9998 17 14.7798 17 14.4998C17 14.2198 17.22 13.9998 17.5 13.9998H19.5Z" fill="#809FB8"/>
<path d="M19.5 16.9998C19.78 16.9998 20 17.2198 20 17.4998C20 17.7798 19.78 17.9998 19.5 17.9998H17.5C17.22 17.9998 17 17.7798 17 17.4998C17 17.2198 17.22 16.9998 17.5 16.9998H19.5Z" fill="#809FB8"/>
<path d="M19.5 19.9998C19.78 19.9998 20 20.2198 20 20.4998C20 20.7798 19.78 20.9998 19.5 20.9998H17.5C17.22 20.9998 17 20.7798 17 20.4998C17 20.2198 17.22 19.9998 17.5 19.9998H19.5Z" fill="#809FB8"/>
<path d="M14 23.4999C14 23.7799 13.78 23.9999 13.5 23.9999C13.22 23.9999 13 23.7799 13 23.4999V22.9999V9.49985C13 9.34985 13.07 9.20985 13.18 9.10985C13.3 9.01985 13.45 8.97985 13.6 9.00985L14 9.08985V10.1098V22.9999V23.4999Z" fill="#809FB8"/>
<path d="M13 22.9998V23.4998C13 23.7798 13.22 23.9998 13.5 23.9998H9.5C9.78 23.9998 10 23.7798 10 23.4998V22.9998H13Z" fill="#809FB8"/>
<path d="M10.5 4.99976C10.78 4.99976 11 5.21976 11 5.49976C11 5.77976 10.78 5.99976 10.5 5.99976H8.5C8.22 5.99976 8 5.77976 8 5.49976C8 5.21976 8.22 4.99976 8.5 4.99976H10.5Z" fill="#809FB8"/>
<path d="M11 8.49976C11 8.77976 10.78 8.99976 10.5 8.99976H8.5C8.22 8.99976 8 8.77976 8 8.49976C8 8.21976 8.22 7.99976 8.5 7.99976H10.5C10.78 7.99976 11 8.21976 11 8.49976Z" fill="#809FB8"/>
<path d="M10.5 10.9998C10.78 10.9998 11 11.2198 11 11.4998C11 11.7798 10.78 11.9998 10.5 11.9998H8.5C8.22 11.9998 8 11.7798 8 11.4998C8 11.2198 8.22 10.9998 8.5 10.9998H10.5Z" fill="#809FB8"/>
<path d="M10.5 13.9998C10.78 13.9998 11 14.2198 11 14.4998C11 14.7798 10.78 14.9998 10.5 14.9998H8.5C8.22 14.9998 8 14.7798 8 14.4998C8 14.2198 8.22 13.9998 8.5 13.9998H10.5Z" fill="#809FB8"/>
<path d="M6 14.4998C6 14.7798 5.78 14.9998 5.5 14.9998H3.5C3.22 14.9998 3 14.7798 3 14.4998C3 14.2198 3.22 13.9998 3.5 13.9998H5.5C5.78 13.9998 6 14.2198 6 14.4998Z" fill="#809FB8"/>
<path d="M5.5 4.99976C5.78 4.99976 6 5.21976 6 5.49976C6 5.77976 5.78 5.99976 5.5 5.99976H3.5C3.22 5.99976 3 5.77976 3 5.49976C3 5.21976 3.22 4.99976 3.5 4.99976H5.5Z" fill="#809FB8"/>
<path d="M5.5 7.99976C5.78 7.99976 6 8.21976 6 8.49976C6 8.77976 5.78 8.99976 5.5 8.99976H3.5C3.22 8.99976 3 8.77976 3 8.49976C3 8.21976 3.22 7.99976 3.5 7.99976H5.5Z" fill="#809FB8"/>
<path d="M5.5 10.9998C5.78 10.9998 6 11.2198 6 11.4998C6 11.7798 5.78 11.9998 5.5 11.9998H3.5C3.22 11.9998 3 11.7798 3 11.4998C3 11.2198 3.22 10.9998 3.5 10.9998H5.5Z" fill="#809FB8"/>
<path d="M9 18.4998C9 18.2198 8.77 17.9998 8.5 17.9998H5.5C5.22 17.9998 5 18.2198 5 18.4998V22.9998H4V18.4998C4 17.6698 4.67 16.9998 5.5 16.9998H8.5C9.33 16.9998 10 17.6698 10 18.4998V22.9998H9V18.4998Z" fill="#809FB8"/>
<path d="M5 22.9998H9H10V23.4998C10 23.7798 9.78 23.9998 9.5 23.9998H4.5C4.22 23.9998 4 23.7798 4 23.4998V22.9998H5Z" fill="#809FB8"/>
<path d="M1.75 0.199889L12.74 1.86989C13.47 1.98989 14 2.60989 14 3.34989V9.08989L13.6 9.00989C13.45 8.97989 13.3 9.01989 13.18 9.10989C13.07 9.20989 13 9.34989 13 9.49989V3.34989C13 3.09989 12.82 2.88989 12.58 2.84989L1.59 1.18989C1.56 1.17989 1.53 1.17989 1.5 1.17989C1.38 1.17989 1.27 1.21989 1.18 1.29989C1.06 1.39989 1 1.52989 1 1.67989V22.4999C1 22.7799 1.23 22.9999 1.5 22.9999H4V23.4999C4 23.7799 4.22 23.9999 4.5 23.9999H1.5C0.67 23.9999 0 23.3299 0 22.4999V1.67989C0 1.23989 0.19 0.819889 0.53 0.539889C0.87 0.249889 1.31 0.129889 1.75 0.199889Z" fill="#809FB8"/>
</svg>
