<svg width="24" height="24" viewBox="0 0 24 24" fill="none" xmlns="http://www.w3.org/2000/svg">
<path d="M12.0001 0C10.6746 0 9.6001 1.0745 9.6001 2.4C9.6001 3.7255 10.6746 4.8 12.0001 4.8C13.325 4.7987 14.3988 3.72495 14.4001 2.4C14.4001 1.0745 13.3256 0 12.0001 0ZM12.0001 4C11.1164 4 10.4001 3.28365 10.4001 2.4C10.4001 1.51635 11.1164 0.8 12.0001 0.8C12.8837 0.8 13.6001 1.51635 13.6001 2.4C13.6001 3.28365 12.8837 4 12.0001 4Z" fill="white"/>
<path d="M13.5999 5.19995H13.5055L13.4211 5.24195C12.5261 5.6876 11.4738 5.6876 10.5787 5.24195L10.4943 5.19995H10.3999C9.2959 5.20125 8.4012 6.09595 8.3999 7.19995V9.59995C8.3999 10.2627 8.93715 10.8 9.5999 10.8H14.3999C15.0627 10.8 15.5999 10.2627 15.5999 9.59995V7.19995C15.5986 6.09595 14.7039 5.20125 13.5999 5.19995ZM14.7999 9.59995C14.7999 9.82085 14.6208 9.99995 14.3999 9.99995H9.5999C9.379 9.99995 9.1999 9.82085 9.1999 9.59995V7.19995C9.2 6.57035 9.68665 6.04785 10.3147 6.00315C11.3835 6.49915 12.6164 6.49915 13.6851 6.00315C14.3131 6.04785 14.7998 6.57035 14.7999 7.19995V9.59995Z" fill="white"/>
<path d="M20.4 13.2C19.0745 13.2 18 14.2745 18 15.6C18 16.9255 19.0745 18 20.4 18C21.7255 18 22.8 16.9255 22.8 15.6C22.7987 14.275 21.7249 13.2013 20.4 13.2ZM20.4 17.2C19.5163 17.2 18.8 16.4836 18.8 15.6C18.8 14.7163 19.5163 14 20.4 14C21.2836 14 22 14.7163 22 15.6C22 16.4836 21.2836 17.2 20.4 17.2Z" fill="white"/>
<path d="M21.9998 18.3999H21.9054L21.821 18.4399C20.926 18.8855 19.8737 18.8855 18.9786 18.4399L18.8942 18.3999H18.7998C17.6958 18.4012 16.8011 19.2959 16.7998 20.3999V22.7999C16.7998 23.4627 17.3371 23.9999 17.9998 23.9999H22.7998C23.4626 23.9999 23.9998 23.4627 23.9998 22.7999V20.3999C23.9985 19.2959 23.1038 18.4012 21.9998 18.3999ZM23.1998 22.7999C23.1998 23.0208 23.0207 23.1999 22.7998 23.1999H17.9998C17.7789 23.1999 17.5998 23.0208 17.5998 22.7999V20.3999C17.5999 19.7703 18.0866 19.2478 18.7146 19.2031C19.7834 19.6991 21.0163 19.6991 22.085 19.2031C22.7131 19.2478 23.1997 19.7703 23.1998 20.3999V22.7999Z" fill="white"/>
<path d="M3.6002 13.2C2.2747 13.2 1.2002 14.2745 1.2002 15.6C1.2002 16.9255 2.2747 18 3.6002 18C4.9257 18 6.0002 16.9255 6.0002 15.6C5.9989 14.275 4.92515 13.2013 3.6002 13.2ZM3.6002 17.2C2.71655 17.2 2.0002 16.4836 2.0002 15.6C2.0002 14.7163 2.71655 14 3.6002 14C4.48385 14 5.2002 14.7163 5.2002 15.6C5.2002 16.4836 4.48385 17.2 3.6002 17.2Z" fill="white"/>
<path d="M5.2 18.3999H5.1056L5.0212 18.4399C4.12615 18.8855 3.07385 18.8855 2.1788 18.4399L2.0944 18.3999H2C0.896 18.4012 0.0013 19.2959 0 20.3999V22.7999C0 23.4627 0.53725 23.9999 1.2 23.9999H6C6.66275 23.9999 7.2 23.4627 7.2 22.7999V20.3999C7.1987 19.2959 6.304 18.4012 5.2 18.3999ZM6.4 22.7999C6.4 23.0208 6.2209 23.1999 6 23.1999H1.2C0.9791 23.1999 0.8 23.0208 0.8 22.7999V20.3999C0.8001 19.7703 1.28675 19.2478 1.9148 19.2031C2.98355 19.6991 4.21645 19.6991 5.2852 19.2031C5.91325 19.2478 6.3999 19.7703 6.4 20.3999V22.7999Z" fill="white"/>
<path d="M15.9687 20.3139C15.9685 20.3134 15.9683 20.313 15.9681 20.3125C15.8815 20.1092 15.6466 20.0147 15.4434 20.1013C13.6371 20.8583 11.6311 20.9964 9.73817 20.4941L10.1126 20.3841C10.3247 20.322 10.4463 20.0998 10.3842 19.8877C10.3221 19.6756 10.0999 19.554 9.88777 19.6161L8.28777 20.0853C8.28177 20.0853 8.27737 20.0921 8.27177 20.0941C8.23472 20.1079 8.19992 20.1272 8.16857 20.1513C8.15467 20.1588 8.14132 20.1672 8.12857 20.1765C8.08637 20.2141 8.05292 20.2605 8.03057 20.3125C8.00887 20.3648 7.99852 20.4211 8.00017 20.4777C8.00992 20.5318 8.02327 20.5853 8.04017 20.6377C8.04257 20.6433 8.04017 20.6497 8.04457 20.6553L8.84457 22.1861C8.94687 22.382 9.18862 22.458 9.38457 22.3557C9.58052 22.2534 9.65647 22.0116 9.55417 21.8157L9.22857 21.1933C11.3793 21.8398 13.6883 21.7141 15.7562 20.8381C15.9596 20.752 16.0548 20.5173 15.9687 20.3139Z" fill="white"/>
<path d="M22.6826 10.5172C22.5264 10.3611 22.2732 10.3611 22.117 10.5172L21.551 11.0832C21.2198 7.57972 18.9955 4.53942 15.7566 3.16322C15.5534 3.07662 15.3184 3.17117 15.2318 3.37442C15.1452 3.57767 15.2398 3.81262 15.443 3.89922C18.3485 5.13407 20.3682 7.83267 20.7338 10.9684L20.2826 10.5172C20.1237 10.3637 19.8705 10.3681 19.717 10.527C19.5673 10.682 19.5673 10.9278 19.717 11.0828L20.917 12.2828C21.073 12.4392 21.3263 12.4396 21.4827 12.2835C21.483 12.2833 21.4832 12.283 21.4834 12.2828L22.6834 11.0828C22.8394 10.9264 22.839 10.6732 22.6826 10.5172Z" fill="white"/>
<path d="M8.7883 3.46361C8.787 3.44026 8.78355 3.41711 8.7779 3.39441C8.7779 3.39081 8.7735 3.38841 8.7719 3.38441C8.7703 3.38041 8.7719 3.37761 8.7719 3.37441C8.761 3.35496 8.7484 3.33646 8.7343 3.31921C8.72135 3.29576 8.70605 3.27366 8.6887 3.25321C8.66505 3.23226 8.63885 3.21441 8.6107 3.20001C8.59665 3.18806 8.58165 3.17721 8.5659 3.16761L6.9659 2.43681C6.76155 2.35291 6.52785 2.45056 6.44395 2.65491C6.3646 2.84816 6.44735 3.06996 6.6339 3.16401L7.4623 3.54281C4.34365 5.21186 2.39765 8.46281 2.3999 12C2.3999 12.2209 2.579 12.4 2.7999 12.4C3.0208 12.4 3.1999 12.2209 3.1999 12C3.1979 8.88536 4.84495 6.00241 7.5291 4.42241L7.2399 5.02681C7.14455 5.22566 7.2281 5.46416 7.4267 5.56001C7.48065 5.58636 7.53985 5.60006 7.5999 5.60001C7.7535 5.59981 7.8934 5.51166 7.9599 5.37321L8.7599 3.70401C8.7599 3.70001 8.7599 3.69561 8.7631 3.69161C8.7735 3.66426 8.78075 3.63581 8.7847 3.60681C8.79155 3.58526 8.79665 3.56321 8.7999 3.54081C8.79855 3.51476 8.7947 3.48891 8.7883 3.46361Z" fill="white"/>
</svg>
