<svg width="24" height="22" viewBox="0 0 24 22" fill="none" xmlns="http://www.w3.org/2000/svg">
<path d="M14.4186 8.39771C15.5555 7.60557 16.2342 6.30633 16.2342 4.92221C16.2342 2.58746 14.3348 0.687988 12 0.687988C10.2352 0.687988 8.63878 1.79963 8.02758 3.45413C7.96027 3.63629 8.05341 3.83846 8.23556 3.90572C8.41753 3.97313 8.61989 3.87989 8.68716 3.69779C9.19678 2.31811 10.5282 1.39111 12 1.39111C13.947 1.39111 15.5311 2.97516 15.5311 4.92221C15.5311 5.85413 15.1619 6.73979 14.5206 7.3943C14.4233 6.89883 14.1818 6.44325 13.8167 6.07819C13.6227 5.88446 13.403 5.72611 13.1657 5.60508C13.5646 5.27114 13.8189 4.76982 13.8189 4.21008C13.8189 3.20714 13.003 2.39114 12 2.39114C10.997 2.39114 10.1811 3.20714 10.1811 4.21008C10.1811 4.77043 10.4359 5.27227 10.8356 5.60621C10.1451 5.95885 9.63422 6.61425 9.47981 7.39669C8.87405 6.78324 8.51433 5.97164 8.47317 5.09143C8.46408 4.8975 8.29884 4.74694 8.10553 4.75669C7.91156 4.76574 7.7617 4.93036 7.77075 5.12429C7.83258 6.44625 8.49253 7.63941 9.58106 8.39757C10.1961 8.82685 10.9047 9.08072 11.6484 9.14171V11.2907H3.44859C3.25439 11.2907 3.09703 11.4481 3.09703 11.6423V14.4327C1.35998 14.6094 0 16.0808 0 17.8639C0 19.7655 1.54706 21.3125 3.44859 21.3125C4.23211 21.3125 4.99922 21.0426 5.60855 20.5525C6.20855 20.07 6.6345 19.3933 6.80789 18.6471C6.85186 18.458 6.73416 18.2691 6.54502 18.2251C6.35588 18.1811 6.16702 18.2988 6.123 18.4879C6.01556 18.9502 5.79703 19.3607 5.49952 19.6946C5.40548 19.335 5.21775 19.0052 4.94794 18.7354C4.81275 18.6004 4.66228 18.4863 4.50084 18.3938C4.79002 18.1165 4.97058 17.7269 4.97058 17.2957C4.97058 16.4564 4.28784 15.7737 3.44859 15.7737C2.60934 15.7737 1.92656 16.4564 1.92656 17.2957C1.92656 17.7274 2.10759 18.1175 2.39733 18.3947C1.91231 18.6728 1.54706 19.1367 1.39978 19.689C0.966937 19.2035 0.703125 18.5641 0.703125 17.8639C0.703125 16.3498 1.93472 15.118 3.44859 15.118C4.67836 15.118 5.76633 15.945 6.09431 17.129C6.14611 17.3161 6.33961 17.4258 6.52692 17.374C6.71405 17.3221 6.82373 17.1285 6.77189 16.9413C6.3915 15.5678 5.19703 14.5775 3.80016 14.4336V11.9937H11.6484V14.4328C9.91134 14.6095 8.55136 16.0808 8.55136 17.8636C8.55136 19.7652 10.0984 21.3123 12 21.3123C13.9016 21.3123 15.4486 19.7652 15.4486 17.8636C15.4486 16.0808 14.0887 14.6095 12.3516 14.4328V11.9937H15.7444C15.9386 11.9937 16.0959 11.8363 16.0959 11.6422C16.0959 11.448 15.9386 11.2906 15.7444 11.2906H12.3516V9.14166C13.0952 9.08068 13.8038 8.82685 14.4186 8.39771ZM2.03194 20.2148C2.04272 19.4427 2.67394 18.8178 3.44869 18.8178C3.82716 18.8178 4.18317 18.9653 4.45097 19.2328C4.71492 19.4968 4.86159 19.8467 4.86553 20.2195C4.44989 20.4686 3.96422 20.6094 3.44864 20.6094C2.93062 20.6094 2.4458 20.4651 2.03194 20.2148ZM3.44864 16.4768C3.90014 16.4768 4.2675 16.8441 4.2675 17.2957C4.2675 17.7472 3.90014 18.1145 3.44864 18.1145C2.99709 18.1145 2.62973 17.7472 2.62973 17.2957C2.62973 16.8441 2.99709 16.4768 3.44864 16.4768ZM10.5833 20.2146C10.5942 19.4426 11.2253 18.8178 12 18.8178C12.3785 18.8178 12.7345 18.9652 13.0023 19.2327C13.2651 19.4955 13.4115 19.8435 13.4167 20.2145C13.0028 20.4649 12.518 20.6092 12 20.6092C11.482 20.6092 10.9972 20.4649 10.5833 20.2146ZM12 18.1145C11.5485 18.1145 11.1811 17.7472 11.1811 17.2957C11.1811 16.8441 11.5485 16.4768 12 16.4768C12.4515 16.4768 12.8189 16.8441 12.8189 17.2957C12.8189 17.7472 12.4515 18.1145 12 18.1145ZM14.7455 17.8637C14.7455 18.5636 14.4818 19.2029 14.0491 19.6883C13.9545 19.3312 13.7675 19.0036 13.4993 18.7354C13.3642 18.6004 13.2137 18.4863 13.0522 18.3938C13.3414 18.1165 13.522 17.7269 13.522 17.2957C13.522 16.4564 12.8393 15.7737 12 15.7737C11.1607 15.7737 10.478 16.4564 10.478 17.2957C10.478 17.7274 10.659 18.1175 10.9488 18.3947C10.4638 18.6728 10.0986 19.1366 9.95128 19.6888C9.5183 19.2033 9.25444 18.5639 9.25444 17.8637C9.25444 16.3498 10.4861 15.1182 12 15.1182C13.5138 15.1182 14.7455 16.3498 14.7455 17.8637ZM12 3.09427C12.6152 3.09427 13.1158 3.59485 13.1158 4.21008C13.1158 4.82532 12.6152 5.32594 12 5.32594C11.3848 5.32594 10.8842 4.82536 10.8842 4.21013C10.8842 3.59489 11.3848 3.09427 12 3.09427ZM12 6.02921C12.4983 6.02921 12.967 6.22327 13.3196 6.57554C13.6719 6.92785 13.8659 7.39636 13.8659 7.89474C13.8659 7.90294 13.8666 7.91096 13.8671 7.91902C13.3081 8.2688 12.6665 8.4533 12 8.4533C11.3336 8.4533 10.692 8.26885 10.1328 7.91897C10.1333 7.91091 10.134 7.90289 10.134 7.89474C10.134 6.86607 10.9711 6.02921 12 6.02921Z" fill="#809FB8"/>
<path d="M20.9031 14.4325V11.6418C20.9031 11.4477 20.7457 11.2903 20.5515 11.2903H17.2769C17.0827 11.2903 16.9253 11.4477 16.9253 11.6418C16.9253 11.836 17.0827 11.9934 17.2769 11.9934H20.1999V14.4325C18.4629 14.6092 17.1029 16.0804 17.1029 17.8633C17.1029 19.7649 18.6499 21.312 20.5514 21.312C22.453 21.312 24.0001 19.7649 24.0001 17.8633C24.0001 16.0804 22.6402 14.6092 20.9031 14.4325ZM19.1348 20.2142C19.1457 19.4422 19.7768 18.8175 20.5514 18.8175C20.9299 18.8175 21.2859 18.9649 21.5537 19.2324C21.8166 19.4952 21.963 19.8432 21.9682 20.2142C21.5543 20.4646 21.0695 20.6089 20.5514 20.6089C20.0335 20.6088 19.5487 20.4645 19.1348 20.2142ZM20.5515 18.1142C20.1 18.1142 19.7326 17.7468 19.7326 17.2953C19.7326 16.8438 20.1 16.4764 20.5515 16.4764C21.003 16.4764 21.3704 16.8438 21.3704 17.2953C21.3704 17.7468 21.003 18.1142 20.5515 18.1142ZM22.6006 19.6879C22.506 19.3308 22.3191 19.0033 22.0508 18.7351C21.9157 18.6 21.7652 18.486 21.6037 18.3934C21.8929 18.1162 22.0735 17.7265 22.0735 17.2953C22.0735 16.456 21.3908 15.7733 20.5515 15.7733C19.7123 15.7733 19.0295 16.456 19.0295 17.2953C19.0295 17.7271 19.2105 18.1171 19.5003 18.3944C19.0153 18.6725 18.6501 19.1363 18.5028 19.6885C18.0698 19.203 17.806 18.5635 17.806 17.8633C17.806 16.3495 19.0376 15.1178 20.5514 15.1178C22.0653 15.1178 23.297 16.3495 23.297 17.8633C23.297 18.5633 23.0333 19.2025 22.6006 19.6879Z" fill="#809FB8"/>
</svg>
