<svg width="24" height="24" viewBox="0 0 24 24" fill="none" xmlns="http://www.w3.org/2000/svg">
<path d="M9.08 21C9.08412 20.8489 9.0392 20.7005 8.95195 20.577C8.86471 20.4536 8.73983 20.3615 8.596 20.3149C8.47902 20.2628 8.34919 20.2466 8.22298 20.2683C8.09677 20.29 7.97984 20.3488 7.887 20.437L7.828 20.4969C7.54933 20.7756 7.21851 20.9968 6.85442 21.1476C6.49033 21.2984 6.10009 21.376 5.706 21.376C5.31191 21.376 4.92168 21.2984 4.55758 21.1476C4.19349 20.9968 3.86266 20.7756 3.584 20.4969C3.30533 20.2183 3.08428 19.8875 2.93347 19.5234C2.78266 19.1593 2.70504 18.7691 2.70504 18.375C2.70504 17.9809 2.78266 17.5907 2.93347 17.2266C3.08428 16.8625 3.30533 16.5317 3.584 16.2531L3.636 16.201C3.72413 16.1079 3.78338 15.9911 3.80659 15.865C3.82981 15.7388 3.81599 15.6086 3.7668 15.4901C3.71762 15.3717 3.63518 15.27 3.52945 15.1974C3.42372 15.1248 3.29922 15.0844 3.171 15.0811H3C2.20435 15.0811 1.44129 14.7649 0.878681 14.2023C0.316072 13.6397 0 12.8767 0 12.0811C0 11.2854 0.316072 10.5223 0.878681 9.95972C1.44129 9.39711 2.20435 9.08105 3 9.08105C3.15101 9.08524 3.29932 9.04042 3.42278 8.95337C3.54624 8.86632 3.63823 8.74167 3.685 8.59802C3.73712 8.48104 3.75335 8.35119 3.73163 8.22498C3.70991 8.09876 3.65122 7.98187 3.563 7.88904L3.504 7.82996C3.22527 7.55136 3.00414 7.22063 2.85324 6.85657C2.70235 6.49251 2.62463 6.10234 2.62454 5.70825C2.62445 5.31416 2.70198 4.92382 2.8527 4.55969C3.00343 4.19556 3.2244 3.86479 3.503 3.58606C3.7816 3.30733 4.11237 3.0862 4.47643 2.9353C4.84049 2.7844 5.2307 2.70664 5.62479 2.70654C6.01889 2.70645 6.40914 2.78397 6.77327 2.93469C7.13739 3.08542 7.46827 3.30636 7.747 3.58496L7.8 3.63696C7.89269 3.7277 8.01044 3.7886 8.13807 3.81177C8.26569 3.83494 8.39733 3.81933 8.516 3.76697C8.58014 3.73844 8.64721 3.71701 8.716 3.703C8.80302 3.64426 8.87445 3.56517 8.9241 3.47266C8.97375 3.38014 9.00014 3.27699 9.001 3.172V3C9.001 2.20435 9.31707 1.44127 9.87968 0.878662C10.4423 0.316053 11.2053 0 12.001 0C12.7966 0 13.5597 0.316053 14.1223 0.878662C14.6849 1.44127 15.001 2.20435 15.001 3V3.08496C15.0015 3.21317 15.0397 3.33839 15.1108 3.44507C15.1819 3.55174 15.2829 3.63527 15.401 3.68506C15.518 3.73718 15.6478 3.75341 15.774 3.73169C15.9002 3.70997 16.0172 3.65121 16.11 3.56299L16.169 3.50403C16.4477 3.22536 16.7785 3.00433 17.1426 2.85352C17.5067 2.7027 17.8969 2.625 18.291 2.625C18.6851 2.625 19.0753 2.7027 19.4394 2.85352C19.8035 3.00433 20.1343 3.22536 20.413 3.50403C20.6917 3.78269 20.9127 4.11345 21.0635 4.47754C21.2143 4.84163 21.292 5.23188 21.292 5.62598C21.292 6.02007 21.2143 6.41032 21.0635 6.77441C20.9127 7.13851 20.6917 7.46938 20.413 7.74805L20.361 7.80005C20.2703 7.89297 20.2094 8.01078 20.1863 8.13855C20.1631 8.26632 20.1787 8.39812 20.231 8.51697C20.2591 8.58127 20.2806 8.64836 20.295 8.71704C20.3538 8.80394 20.4329 8.8752 20.5254 8.92468C20.6179 8.97416 20.7211 9.00032 20.826 9.00098H21C21.7956 9.00098 22.5587 9.31703 23.1213 9.87964C23.6839 10.4422 24 11.2053 24 12.001C24 12.7966 23.6839 13.5597 23.1213 14.1223C22.5587 14.6849 21.7956 15.001 21 15.001H20.914C20.7861 15.0033 20.6617 15.0425 20.5555 15.1139C20.4494 15.1853 20.3661 15.2858 20.3158 15.4033C20.2654 15.5209 20.25 15.6505 20.2715 15.7766C20.293 15.9027 20.3505 16.0198 20.437 16.114L20.497 16.173C20.7757 16.4516 20.9967 16.7825 21.1475 17.1466C21.2983 17.5107 21.376 17.901 21.376 18.295C21.376 18.6891 21.2983 19.0793 21.1475 19.4434C20.9967 19.8075 20.7757 20.1383 20.497 20.417C20.2183 20.6957 19.8875 20.9167 19.5234 21.0675C19.1593 21.2183 18.7691 21.296 18.375 21.296C17.9809 21.296 17.5907 21.2183 17.2266 21.0675C16.8625 20.9167 16.5317 20.6957 16.253 20.417L16.201 20.365C16.108 20.2764 15.9912 20.2168 15.8649 20.1934C15.7386 20.1699 15.6082 20.1835 15.4896 20.2328C15.371 20.282 15.2692 20.3648 15.1967 20.4708C15.1241 20.5768 15.0839 20.7015 15.081 20.83V21C15.081 21.7956 14.7649 22.5587 14.2023 23.1213C13.6397 23.6839 12.8767 24 12.081 24C11.2854 24 10.5223 23.6839 9.95968 23.1213C9.39707 22.5587 9.081 21.7956 9.081 21H9.08ZM9.345 18.4611C9.84725 18.647 10.2816 18.9802 10.5912 19.4172C10.9008 19.8542 11.0712 20.3746 11.08 20.91V21C11.08 21.2652 11.1854 21.5196 11.3729 21.7072C11.5604 21.8947 11.8148 22 12.08 22C12.3452 22 12.5996 21.8947 12.7871 21.7072C12.9746 21.5196 13.08 21.2652 13.08 21V20.825C13.0837 20.3021 13.2412 19.7921 13.5329 19.3582C13.8245 18.9243 14.2375 18.5858 14.7202 18.385C15.2029 18.1842 15.7341 18.13 16.2474 18.229C16.7608 18.3281 17.2336 18.576 17.607 18.942L17.667 19.002C17.76 19.0949 17.8704 19.1687 17.9918 19.219C18.1133 19.2693 18.2435 19.2953 18.375 19.2953C18.5065 19.2953 18.6367 19.2693 18.7582 19.219C18.8796 19.1687 18.99 19.0949 19.083 19.002C19.176 18.909 19.2497 18.7986 19.3 18.6771C19.3504 18.5556 19.3763 18.4254 19.3763 18.2939C19.3763 18.1625 19.3504 18.0324 19.3 17.9109C19.2497 17.7894 19.176 17.679 19.083 17.5861L19.016 17.5179C18.6462 17.1404 18.3979 16.661 18.3029 16.1411C18.2079 15.6213 18.2706 15.0848 18.483 14.601C18.6878 14.1269 19.0266 13.7231 19.4577 13.4388C19.8889 13.1546 20.3936 13.0024 20.91 13.001H21C21.2652 13.001 21.5196 12.8957 21.7071 12.7081C21.8946 12.5206 22 12.2662 22 12.001C22 11.7358 21.8946 11.4815 21.7071 11.2939C21.5196 11.1064 21.2652 11.001 21 11.001H20.826C20.3091 10.9988 19.8041 10.8456 19.3733 10.5601C18.9424 10.2745 18.6044 9.86922 18.401 9.39404C18.3651 9.30973 18.3409 9.22087 18.329 9.13C18.1654 8.66199 18.1362 8.15747 18.2447 7.67371C18.3532 7.18994 18.5951 6.74621 18.943 6.39294L19.003 6.33301C19.1908 6.14523 19.2963 5.89055 19.2963 5.625C19.2963 5.35945 19.1908 5.10477 19.003 4.91699C18.8152 4.72922 18.5605 4.62378 18.295 4.62378C18.0294 4.62378 17.7748 4.72922 17.587 4.91699L17.519 4.98499C17.1445 5.34896 16.6713 5.59478 16.1582 5.69189C15.6451 5.78901 15.1147 5.73308 14.6331 5.53113C14.1515 5.32918 13.74 4.9902 13.4496 4.55615C13.1592 4.12211 13.0029 3.61218 13 3.08997V3C13 2.73478 12.8946 2.48038 12.7071 2.29285C12.5196 2.10531 12.2652 2 12 2C11.7348 2 11.4804 2.10531 11.2929 2.29285C11.1054 2.48038 11 2.73478 11 3V3.17395C10.9979 3.69098 10.8447 4.19615 10.5591 4.6272C10.2736 5.05824 9.86826 5.39636 9.393 5.59998C9.30872 5.63596 9.21988 5.66021 9.129 5.672C8.66088 5.83538 8.15635 5.86431 7.6726 5.75562C7.18885 5.64692 6.74523 5.40494 6.392 5.05701L6.332 4.99695C6.14409 4.80918 5.88929 4.70376 5.62365 4.70386C5.358 4.70395 5.10327 4.80965 4.9155 4.99756C4.72773 5.18546 4.62229 5.44017 4.62238 5.70581C4.62248 5.97146 4.72809 6.22617 4.916 6.41394L4.984 6.48206C5.34922 6.85135 5.59678 7.3205 5.69538 7.83044C5.79399 8.34039 5.73922 8.86822 5.538 9.34705C5.35205 9.84919 5.01873 10.2833 4.58172 10.5928C4.14471 10.9022 3.6244 11.0725 3.089 11.0811H3C2.73478 11.0811 2.48043 11.1864 2.29289 11.3739C2.10536 11.5614 2 11.8158 2 12.0811C2 12.3463 2.10536 12.6005 2.29289 12.7881C2.48043 12.9756 2.73478 13.0811 3 13.0811H3.174C3.69689 13.0845 4.20718 13.2418 4.64123 13.5334C5.07528 13.825 5.41387 14.2379 5.61478 14.7207C5.8157 15.2035 5.87004 15.7347 5.77102 16.2482C5.67201 16.7616 5.42402 17.2346 5.058 17.608L4.997 17.668C4.80923 17.8559 4.70379 18.1107 4.70388 18.3763C4.70398 18.642 4.8096 18.8967 4.9975 19.0845C5.18541 19.2722 5.44021 19.3777 5.70585 19.3776C5.9715 19.3775 6.22623 19.2719 6.414 19.084L6.482 19.016C6.98059 18.5292 7.64922 18.256 8.346 18.254C8.68979 18.2526 9.03008 18.3231 9.345 18.4611ZM8 12C8 11.2089 8.2346 10.4355 8.67412 9.77771C9.11365 9.11991 9.73836 8.60719 10.4693 8.30444C11.2002 8.00169 12.0044 7.92256 12.7804 8.0769C13.5563 8.23125 14.269 8.61222 14.8284 9.17163C15.3878 9.73104 15.7688 10.4437 15.9231 11.2196C16.0775 11.9955 15.9983 12.7999 15.6955 13.5308C15.3928 14.2617 14.8801 14.8864 14.2223 15.3259C13.5645 15.7655 12.7911 16 12 16C10.9391 16 9.92172 15.5785 9.17157 14.8284C8.42143 14.0782 8 13.0609 8 12ZM10 12C10 12.3956 10.1173 12.7822 10.3371 13.1111C10.5568 13.44 10.8692 13.6964 11.2346 13.8478C11.6001 13.9992 12.0022 14.0387 12.3902 13.9615C12.7781 13.8844 13.1345 13.6939 13.4142 13.4142C13.6939 13.1345 13.8844 12.7781 13.9616 12.3901C14.0387 12.0022 13.9991 11.6001 13.8478 11.2346C13.6964 10.8692 13.44 10.5568 13.1111 10.337C12.7822 10.1173 12.3956 10 12 10C11.4696 10 10.9609 10.2107 10.5858 10.5858C10.2107 10.9609 10 11.4696 10 12Z" fill="#809FB8"/>
</svg>
